<svg xmlns="http://www.w3.org/2000/svg" viewBox="0 0 813.4554798136646 488.56598700000006" id="svg1" version="1.1" style="max-height: 500px" width="813.4554798136646" height="488.56598700000006">
  <defs id="defs1">
    <linearGradient id="linearGradient7" spreadMethod="pad" gradientTransform="matrix(0,-638.9,-638.9,0,2322.65,663.69)" gradientUnits="userSpaceOnUse" y2="0" x2="1" y1="0" x1="0">
      <stop id="stop6" offset="0" style="stop-opacity:1;stop-color:#5fabe2"/>
      <stop id="stop7" offset="1" style="stop-opacity:1;stop-color:#4360b5"/>
    </linearGradient>
    <clipPath id="clipPath7" clipPathUnits="userSpaceOnUse">
      <path id="path7" transform="translate(0,-2.5e-4)" d="M 2085.91,11.5195 V 132.52 h 288.12 c 14.08,0 26.9,3.511 38.42,10.57 11.53,7.039 20.8,16.473 27.85,28.332 7.05,11.828 10.57,24.808 10.57,38.898 0,14.719 -3.52,27.993 -10.57,39.852 -7.05,11.84 -16.32,21.277 -27.85,28.328 -11.52,7.039 -24.34,10.57 -38.42,10.57 h -112.36 c -37.79,0 -72.03,7.692 -102.77,23.051 -30.71,15.371 -55.2,37.598 -73.46,66.738 -18.25,29.141 -27.37,64.18 -27.37,105.161 0,40.332 8.64,75.402 25.93,105.16 17.28,29.781 40.65,52.98 70.11,69.629 29.43,16.652 62.1,24.972 97.95,24.972 h 291.97 v -121 h -278.51 c -12.82,0 -24.66,-3.359 -35.55,-10.09 -10.89,-6.722 -19.36,-15.531 -25.44,-26.402 -6.1,-10.91 -9.12,-23.047 -9.12,-36.5 0,-13.449 3.02,-25.617 9.12,-36.5 6.08,-10.887 14.55,-19.527 25.44,-25.93 10.89,-6.41 22.73,-9.597 35.55,-9.597 h 116.19 c 41.62,0 77.8,-8.012 108.53,-24.012 30.74,-16.008 54.58,-38.418 71.55,-67.23 16.96,-28.809 25.45,-62.418 25.45,-100.829 0,-45.48 -8.81,-84.211 -26.41,-116.222 -17.62,-32.0198 -41.29,-56.3401 -71.07,-72.9885 -29.78,-16.6485 -62.59,-24.961 -98.43,-24.961 z"/>
    </clipPath>
    <linearGradient id="linearGradient9" spreadMethod="pad" gradientTransform="matrix(0,-638.901,-638.901,0,2922.42,663.69)" gradientUnits="userSpaceOnUse" y2="0" x2="1" y1="0" x1="0">
      <stop id="stop8" offset="0" style="stop-opacity:1;stop-color:#5fabe2"/>
      <stop id="stop9" offset="1" style="stop-opacity:1;stop-color:#4360b5"/>
    </linearGradient>
    <clipPath id="clipPath9" clipPathUnits="userSpaceOnUse">
      <path id="path9" transform="translate(0,-2.5e-4)" d="m 2922.41,0 c -49.93,0 -92.85,9.92969 -128.69,29.7617 -35.87,19.8477 -63.23,46.418 -82.12,79.7073 -18.89,33.281 -28.32,70.113 -28.32,110.453 v 281.387 h 131.56 V 219.922 c 0,-19.852 4.81,-37.942 14.41,-54.262 9.6,-16.328 22.57,-29.289 38.9,-38.898 16.32,-9.602 34.4,-14.403 54.26,-14.403 19.83,0 37.94,4.801 54.26,14.403 16.33,9.609 29.29,22.57 38.89,38.898 9.61,16.32 14.41,34.41 14.41,54.262 v 281.387 h 131.59 V 219.922 c 0,-40.34 -9.49,-77.172 -28.36,-110.453 C 3114.33,76.1797 3087.11,49.6094 3051.58,29.7617 3016.05,9.92969 2972.98,0 2922.41,0 Z"/>
    </clipPath>
    <linearGradient id="linearGradient11" spreadMethod="pad" gradientTransform="matrix(0,-638.899,-638.899,0,3689.26,663.69)" gradientUnits="userSpaceOnUse" y2="0" x2="1" y1="0" x1="0">
      <stop id="stop10" offset="0" style="stop-opacity:1;stop-color:#5fabe2"/>
      <stop id="stop11" offset="1" style="stop-opacity:1;stop-color:#4360b5"/>
    </linearGradient>
    <clipPath id="clipPath11" clipPathUnits="userSpaceOnUse">
      <path id="path11" transform="translate(0,-2.5e-4)" d="M 3286.39,11.5195 V 302.512 c 0,38.418 9.26,73.629 27.86,105.648 18.54,32.012 45.27,57.449 80.19,76.34 34.87,18.891 76.96,28.34 126.29,28.34 23.67,0 45.6,-2.738 65.78,-8.16 20.17,-5.45 38.89,-13.301 56.17,-23.539 17.29,-10.243 32.33,-22.422 45.14,-36.493 h 0.96 c 13.46,14.071 28.82,26.25 46.1,36.493 17.29,10.238 36.16,18.089 56.68,23.539 20.46,5.422 42.57,8.16 66.26,8.16 49.28,0 91.37,-9.449 126.3,-28.34 34.87,-18.891 61.59,-44.328 80.18,-76.34 18.55,-32.019 27.84,-67.23 27.84,-105.648 V 11.5195 H 3960.57 V 302.512 c 0,17.918 -4.64,34.25 -13.93,48.988 -9.28,14.711 -21.6,26.559 -36.96,35.52 -15.37,8.96 -32.65,13.449 -51.86,13.449 -18.6,0 -35.7,-4.489 -51.4,-13.449 -15.7,-8.961 -28.16,-20.809 -37.44,-35.52 -9.29,-14.738 -13.93,-31.07 -13.93,-48.988 V 11.5195 H 3623.48 V 302.512 c 0,17.918 -4.64,34.25 -13.93,48.988 -9.28,14.711 -21.6,26.559 -36.97,35.52 -15.36,8.96 -32.65,13.449 -51.85,13.449 -18.59,0 -35.7,-4.489 -51.4,-13.449 -15.69,-8.961 -28.16,-20.809 -37.44,-35.52 -9.29,-14.738 -13.93,-31.07 -13.93,-48.988 V 11.5195 Z"/>
    </clipPath>
    <linearGradient id="linearGradient17" spreadMethod="pad" gradientTransform="matrix(638.022,0,0,-638.022,2695.05,3094.55)" gradientUnits="userSpaceOnUse" y2="0" x2="1" y1="0" x1="0">
      <stop id="stop16" offset="0" style="stop-opacity:1;stop-color:#5fabe2"/>
      <stop id="stop17" offset="1" style="stop-opacity:1;stop-color:#4360b5"/>
    </linearGradient>
    <clipPath id="clipPath17" clipPathUnits="userSpaceOnUse">
      <path id="path17" transform="translate(0,-2.5e-4)" d="m 3688.68,2579.01 h -35 v 890.69 l -24.1,7.9 c -196.5,64.7 -400.9,97.5 -607.5,97.5 -6.7,0 -13.4,0 -20.2,-0.1 -199.7,-2.1 -397.3,-34.8 -587.3,-97.4 l -24,-7.9 v -890.69 h -35 V 3495 l 48.1,15.8 c 193.4,63.7 394.6,97.1 597.9,99.2 6.9,0.1 13.7,0.1 20.5,0.1 210.3,0 418.4,-33.4 618.5,-99.3 l 48.1,-15.8 v -915.99"/>
    </clipPath>
    <clipPath id="clipPath20" clipPathUnits="userSpaceOnUse">
      <path id="path20" transform="translate(0,-2.5e-4)" d="M 2425.56,1530.02 H 3618.68 V 3540.1 H 2425.56 Z"/>
    </clipPath>
    <clipPath id="clipPath22" clipPathUnits="userSpaceOnUse">
      <path id="path22" transform="translate(0,-2.5e-4)" d="M 2425.56,1530.02 H 3618.68 V 3540.1 H 2425.56 Z"/>
    </clipPath>
    <linearGradient id="linearGradient24" spreadMethod="pad" gradientTransform="matrix(638.037,0,0,-638.037,2695.05,2573.35)" gradientUnits="userSpaceOnUse" y2="0" x2="1" y1="0" x1="0">
      <stop id="stop23" offset="0" style="stop-opacity:1;stop-color:#5fabe2"/>
      <stop id="stop24" offset="1" style="stop-opacity:1;stop-color:#4360b5"/>
    </linearGradient>
    <clipPath id="clipPath24" clipPathUnits="userSpaceOnUse">
      <path id="path24" transform="translate(0,-2.5e-4)" d="m 3345.58,2822 -73.3,-60.9 v -635.5 c 0,-137.4 -112.3,-249.4 -250.1,-249.4 -124.6,0 -228.3,91.4 -247.1,210.4 l -63.2,-52.5 c 9.4,-31.7 23.8,-61.4 42.1,-88.2 2.2,-3.3 4.3,-6.4 6.7,-9.5 1.7,-2.6 3.6,-5.1 5.6,-7.5 2.2,-2.9 4.4,-5.7 6.7,-8.6 3.1,-3.8 6.4,-7.4 9.7,-10.9 10.3,-11.6 21.6,-22.3 33.5,-32.1 l 0.7,-0.6 c 5.9,-4.8 11.9,-9.3 18,-13.8 l 0.7,-0.3 c 17.4,-12.5 36.3,-23 56.1,-31.8 1.9,-0.9 3.8,-1.9 5.9,-2.8 8.8,-3.6 18,-6.9 27.3,-9.9 l 1.4,-0.5 c 8.3,-2.6 16.9,-4.8 25.6,-6.7 22.6,-5.2 46.1,-8 70.3,-8 2.3,0 4.3,0 6.4,0.2 2.1,0 4.2,0.2 6.2,0.2 8.2,0.3 16.1,1 24.1,1.9 0.8,0.2 1.9,0.2 2.9,0.3 27.7,3.1 54.1,10 79.2,20.1 3.6,1.5 7.2,2.9 10.7,4.5 7.1,3.2 14.2,6.5 21.1,10.2 3.4,1.9 6.9,3.8 10.3,5.7 3.5,2 6.8,3.9 10.1,6 3.4,2.1 6.5,4.3 9.8,6.4 4.7,3.1 9.5,6.6 14,10 4.5,3.5 9,7.1 13.5,10.8 l 0.9,0.8 c 8.8,7.4 17.1,15.2 25,23.5 6.4,6.8 12.6,13.8 18.3,21.1 0.9,1.2 1.8,2.3 2.6,3.5 5.1,6.2 9.7,12.8 14.2,19.5 0.9,1.2 1.7,2.6 2.6,3.8 4.3,6.7 8.5,13.7 12.3,20.7 0.7,1.4 1.4,2.6 2.1,3.8 3.8,7.3 7.4,14.7 10.7,22.3 0.5,1.2 1.2,2.6 1.7,3.8 1.4,3.5 2.8,7.1 4.1,10.8 1.3,3.4 2.6,6.9 3.7,10.3 1.2,3.7 2.4,7.3 3.4,10.9 1.2,3.6 2.1,7.3 3.1,11.1 0.9,3.4 1.9,6.9 2.6,10.5 1.6,7.1 3,14.4 4.2,21.6 2.6,15.9 3.8,32 3.8,48.4 v 696.6 z m -2.5,240.5 c -4.9,38 -16.6,73.9 -33.8,106.6 -2.9,5.5 -5.9,10.8 -9,16 -3.1,5.4 -6.4,10.6 -9.8,15.6 -2.3,3.1 -4.3,6.4 -6.8,9.5 -2.2,3.1 -4.5,6.2 -6.9,9.1 -4.8,6.3 -9.8,12.1 -15,17.9 l -0.4,0.3 c -20.5,22.8 -44.4,42.5 -70.7,58.6 l -1.9,1 c -12.1,7.3 -24.7,13.9 -37.6,19.6 -1.1,0.5 -2.1,0.8 -3.1,1.3 -4.9,2.1 -9.7,4 -14.7,5.7 -4.9,1.9 -9.9,3.5 -14.9,5.1 -30.4,9.8 -62.7,15 -96.3,15 -16.7,0 -33,-1.7 -49.1,-4.2 h -0.7 c -5.1,-0.8 -10.3,-1.7 -15.5,-2.9 -4.5,-0.9 -8.8,-1.7 -13,-2.9 -4.8,-1.1 -9.3,-2.5 -14,-3.8 -4.6,-1.4 -9.1,-2.8 -13.6,-4.4 -5.6,-1.9 -11.1,-3.9 -16.4,-6.2 -4.2,-1.7 -8.5,-3.6 -12.7,-5.5 -5.3,-2.4 -10.8,-5.2 -16.2,-8.1 -10.2,-5.2 -20.1,-11.1 -29.6,-17.7 -6.4,-4.3 -12.8,-8.9 -18.8,-13.8 -75.5,-58.8 -124.1,-150.4 -124.1,-253.2 V 2266 l 0.2,0.1 73.3,60.9 v 694.1 c 0,137.4 112.3,249.4 250.2,249.4 137.8,0 250.1,-112 250.1,-249.4 v -17 z"/>
    </clipPath>
    <linearGradient id="linearGradient28" spreadMethod="pad" gradientTransform="matrix(547.051,0,0,-547.051,2742.54,1156.66)" gradientUnits="userSpaceOnUse" y2="0" x2="1" y1="0" x1="0">
      <stop id="stop27" offset="0" style="stop-opacity:1;stop-color:#5fabe2"/>
      <stop id="stop28" offset="1" style="stop-opacity:1;stop-color:#4360b5"/>
    </linearGradient>
    <clipPath id="clipPath28" clipPathUnits="userSpaceOnUse">
      <path id="path28" transform="translate(0,-2.5e-4)" d="m 3159.51,1221.7 h -286.88 c -71.85,0 -130.09,-58.24 -130.09,-130.09 h 547.06 c 0,71.85 -58.25,130.09 -130.09,130.09 z"/>
    </clipPath>
    <linearGradient id="linearGradient38" spreadMethod="pad" gradientTransform="matrix(0,-638.9,-638.9,0,2322.65,6449.1)" gradientUnits="userSpaceOnUse" y2="0" x2="1" y1="0" x1="0">
      <stop id="stop37" offset="0" style="stop-opacity:1;stop-color:#5fabe2"/>
      <stop id="stop38" offset="1" style="stop-opacity:1;stop-color:#4360b5"/>
    </linearGradient>
    <clipPath id="clipPath38" clipPathUnits="userSpaceOnUse">
      <path id="path38" transform="translate(0,-2.5e-4)" d="m 2085.91,5796.93 v 121 h 288.12 c 14.08,0 26.9,3.51 38.42,10.57 11.53,7.04 20.8,16.47 27.85,28.33 7.05,11.83 10.57,24.81 10.57,38.9 0,14.72 -3.52,27.99 -10.57,39.85 -7.05,11.84 -16.32,21.28 -27.85,28.33 -11.52,7.04 -24.34,10.57 -38.42,10.57 h -112.36 c -37.79,0 -72.03,7.69 -102.77,23.05 -30.71,15.37 -55.2,37.6 -73.46,66.74 -18.25,29.14 -27.37,64.19 -27.37,105.16 0,40.34 8.64,75.4 25.93,105.16 17.28,29.78 40.65,52.98 70.11,69.63 29.43,16.65 62.1,24.97 97.95,24.97 h 291.97 v -121 h -278.51 c -12.82,0 -24.66,-3.36 -35.55,-10.09 -10.89,-6.72 -19.36,-15.53 -25.44,-26.4 -6.1,-10.9 -9.12,-23.05 -9.12,-36.5 0,-13.45 3.02,-25.61 9.12,-36.5 6.08,-10.89 14.55,-19.53 25.44,-25.93 10.89,-6.41 22.73,-9.6 35.55,-9.6 h 116.19 c 41.62,0 77.8,-8.01 108.53,-24.01 30.74,-16.01 54.58,-38.42 71.55,-67.23 16.96,-28.81 25.45,-62.41 25.45,-100.83 0,-45.48 -8.81,-84.21 -26.41,-116.21 -17.62,-32.03 -41.29,-56.35 -71.07,-72.99 -29.78,-16.66 -62.59,-24.97 -98.43,-24.97 z"/>
    </clipPath>
    <linearGradient id="linearGradient40" spreadMethod="pad" gradientTransform="matrix(0,-638.902,-638.902,0,2922.42,6449.1)" gradientUnits="userSpaceOnUse" y2="0" x2="1" y1="0" x1="0">
      <stop id="stop39" offset="0" style="stop-opacity:1;stop-color:#5fabe2"/>
      <stop id="stop40" offset="1" style="stop-opacity:1;stop-color:#4360b5"/>
    </linearGradient>
    <clipPath id="clipPath40" clipPathUnits="userSpaceOnUse">
      <path id="path40" transform="translate(0,-2.5e-4)" d="m 2922.41,5785.41 c -49.93,0 -92.85,9.93 -128.69,29.76 -35.87,19.85 -63.23,46.42 -82.12,79.72 -18.89,33.28 -28.32,70.1 -28.32,110.44 v 281.39 h 131.56 v -281.39 c 0,-19.84 4.81,-37.94 14.41,-54.26 9.6,-16.33 22.57,-29.29 38.9,-38.91 16.32,-9.59 34.4,-14.38 54.26,-14.38 19.83,0 37.94,4.79 54.26,14.38 16.33,9.62 29.29,22.58 38.89,38.91 9.61,16.32 14.41,34.42 14.41,54.26 v 281.39 h 131.59 v -281.39 c 0,-40.34 -9.49,-77.16 -28.36,-110.44 -18.87,-33.3 -46.09,-59.87 -81.62,-79.72 -35.53,-19.83 -78.6,-29.76 -129.17,-29.76 z"/>
    </clipPath>
    <linearGradient id="linearGradient42" spreadMethod="pad" gradientTransform="matrix(0,-638.9,-638.9,0,3689.26,6449.1)" gradientUnits="userSpaceOnUse" y2="0" x2="1" y1="0" x1="0">
      <stop id="stop41" offset="0" style="stop-opacity:1;stop-color:#5fabe2"/>
      <stop id="stop42" offset="1" style="stop-opacity:1;stop-color:#4360b5"/>
    </linearGradient>
    <clipPath id="clipPath42" clipPathUnits="userSpaceOnUse">
      <path id="path42" transform="translate(0,-2.5e-4)" d="m 3286.39,5796.93 v 290.99 c 0,38.42 9.26,73.63 27.86,105.65 18.54,32.01 45.27,57.46 80.19,76.34 34.87,18.89 76.96,28.34 126.29,28.34 23.67,0 45.6,-2.74 65.78,-8.16 20.17,-5.45 38.89,-13.3 56.17,-23.54 17.29,-10.24 32.33,-22.42 45.14,-36.49 h 0.96 c 13.46,14.07 28.82,26.25 46.1,36.49 17.29,10.24 36.16,18.09 56.68,23.54 20.46,5.42 42.57,8.16 66.26,8.16 49.28,0 91.37,-9.45 126.3,-28.34 34.87,-18.88 61.59,-44.33 80.18,-76.34 18.55,-32.02 27.84,-67.23 27.84,-105.65 v -290.99 h -131.57 v 290.99 c 0,17.93 -4.64,34.25 -13.93,48.99 -9.28,14.71 -21.6,26.56 -36.96,35.53 -15.37,8.96 -32.65,13.44 -51.86,13.44 -18.6,0 -35.7,-4.48 -51.4,-13.44 -15.7,-8.97 -28.16,-20.82 -37.44,-35.53 -9.29,-14.74 -13.93,-31.06 -13.93,-48.99 v -290.99 h -131.57 v 290.99 c 0,17.93 -4.64,34.25 -13.93,48.99 -9.28,14.71 -21.6,26.56 -36.97,35.53 -15.36,8.96 -32.65,13.44 -51.85,13.44 -18.59,0 -35.7,-4.48 -51.4,-13.44 -15.69,-8.97 -28.16,-20.82 -37.44,-35.53 -9.29,-14.74 -13.93,-31.06 -13.93,-48.99 v -290.99 z"/>
    </clipPath>
    <linearGradient id="linearGradient48" spreadMethod="pad" gradientTransform="matrix(638.022,0,0,-638.022,2695.05,8879.96)" gradientUnits="userSpaceOnUse" y2="0" x2="1" y1="0" x1="0">
      <stop id="stop47" offset="0" style="stop-opacity:1;stop-color:#5fabe2"/>
      <stop id="stop48" offset="1" style="stop-opacity:1;stop-color:#4360b5"/>
    </linearGradient>
    <clipPath id="clipPath48" clipPathUnits="userSpaceOnUse">
      <path id="path48" transform="translate(0,-2.5e-4)" d="m 3688.68,8364.42 h -35 v 890.69 l -24.1,7.9 c -196.5,64.7 -400.9,97.5 -607.5,97.5 -6.7,0 -13.4,0 -20.2,-0.1 -199.7,-2.1 -397.3,-34.8 -587.3,-97.4 l -24,-7.9 v -890.69 h -35 v 915.99 l 48.1,15.8 c 193.4,63.7 394.6,97.1 597.9,99.2 6.9,0.1 13.7,0.1 20.5,0.1 210.3,0 418.4,-33.4 618.5,-99.3 l 48.1,-15.8 v -915.99"/>
    </clipPath>
    <clipPath id="clipPath51" clipPathUnits="userSpaceOnUse">
      <path id="path51" transform="translate(0,-2.5e-4)" d="M 2425.56,7315.43 H 3618.68 V 9325.51 H 2425.56 Z"/>
    </clipPath>
    <clipPath id="clipPath53" clipPathUnits="userSpaceOnUse">
      <path id="path53" transform="translate(0,-2.5e-4)" d="M 2425.56,7315.43 H 3618.68 V 9325.51 H 2425.56 Z"/>
    </clipPath>
    <linearGradient id="linearGradient55" spreadMethod="pad" gradientTransform="matrix(638.037,0,0,-638.037,2695.05,8358.76)" gradientUnits="userSpaceOnUse" y2="0" x2="1" y1="0" x1="0">
      <stop id="stop54" offset="0" style="stop-opacity:1;stop-color:#5fabe2"/>
      <stop id="stop55" offset="1" style="stop-opacity:1;stop-color:#4360b5"/>
    </linearGradient>
    <clipPath id="clipPath55" clipPathUnits="userSpaceOnUse">
      <path id="path55" transform="translate(0,-2.5e-4)" d="m 3345.58,8607.41 -73.3,-60.9 v -635.5 c 0,-137.4 -112.3,-249.4 -250.1,-249.4 -124.6,0 -228.3,91.4 -247.1,210.4 l -63.2,-52.5 c 9.4,-31.7 23.8,-61.4 42.1,-88.2 2.2,-3.3 4.3,-6.4 6.7,-9.5 1.7,-2.6 3.6,-5.1 5.6,-7.5 2.2,-2.9 4.4,-5.7 6.7,-8.6 3.1,-3.8 6.4,-7.4 9.7,-10.9 10.3,-11.6 21.6,-22.3 33.5,-32.1 l 0.7,-0.6 c 5.9,-4.8 11.9,-9.3 18,-13.8 l 0.7,-0.3 c 17.4,-12.5 36.3,-23 56.1,-31.8 1.9,-0.9 3.8,-1.9 5.9,-2.8 8.8,-3.6 18,-6.9 27.3,-9.9 l 1.4,-0.5 c 8.3,-2.6 16.9,-4.8 25.6,-6.7 22.6,-5.2 46.1,-8 70.3,-8 2.3,0 4.3,0 6.4,0.2 2.1,0 4.2,0.2 6.2,0.2 8.2,0.3 16.1,1 24.1,1.9 0.8,0.2 1.9,0.2 2.9,0.3 27.7,3.1 54.1,10 79.2,20.1 3.6,1.5 7.2,2.9 10.7,4.5 7.1,3.2 14.2,6.5 21.1,10.2 3.4,1.9 6.9,3.8 10.3,5.7 3.5,2 6.8,3.9 10.1,6 3.4,2.1 6.5,4.3 9.8,6.4 4.7,3.1 9.5,6.6 14,10 4.5,3.5 9,7.1 13.5,10.8 l 0.9,0.8 c 8.8,7.4 17.1,15.2 25,23.5 6.4,6.8 12.6,13.8 18.3,21.1 0.9,1.2 1.8,2.3 2.6,3.5 5.1,6.2 9.7,12.8 14.2,19.5 0.9,1.2 1.7,2.6 2.6,3.8 4.3,6.7 8.5,13.7 12.3,20.7 0.7,1.4 1.4,2.6 2.1,3.8 3.8,7.3 7.4,14.7 10.7,22.3 0.5,1.2 1.2,2.6 1.7,3.8 1.4,3.5 2.8,7.1 4.1,10.8 1.3,3.4 2.6,6.9 3.7,10.3 1.2,3.7 2.4,7.3 3.4,10.9 1.2,3.6 2.1,7.3 3.1,11.1 0.9,3.4 1.9,6.9 2.6,10.5 1.6,7.1 3,14.4 4.2,21.6 2.6,15.9 3.8,32 3.8,48.4 v 696.6 z m -2.5,240.5 c -4.9,38 -16.6,73.9 -33.8,106.6 -2.9,5.5 -5.9,10.8 -9,16 -3.1,5.4 -6.4,10.6 -9.8,15.6 -2.3,3.1 -4.3,6.4 -6.8,9.5 -2.2,3.1 -4.5,6.2 -6.9,9.1 -4.8,6.3 -9.8,12.1 -15,17.9 l -0.4,0.3 c -20.5,22.8 -44.4,42.5 -70.7,58.6 l -1.9,1 c -12.1,7.3 -24.7,13.9 -37.6,19.6 -1.1,0.5 -2.1,0.8 -3.1,1.3 -4.9,2.1 -9.7,4 -14.7,5.7 -4.9,1.9 -9.9,3.5 -14.9,5.1 -30.4,9.8 -62.7,15 -96.3,15 -16.7,0 -33,-1.7 -49.1,-4.2 h -0.7 c -5.1,-0.8 -10.3,-1.7 -15.5,-2.9 -4.5,-0.9 -8.8,-1.7 -13,-2.9 -4.8,-1.1 -9.3,-2.5 -14,-3.8 -4.6,-1.4 -9.1,-2.8 -13.6,-4.4 -5.6,-1.9 -11.1,-3.9 -16.4,-6.2 -4.2,-1.7 -8.5,-3.6 -12.7,-5.5 -5.3,-2.4 -10.8,-5.2 -16.2,-8.1 -10.2,-5.2 -20.1,-11.1 -29.6,-17.7 -6.4,-4.3 -12.8,-8.9 -18.8,-13.8 -75.5,-58.8 -124.1,-150.4 -124.1,-253.2 v -755.1 l 0.2,0.1 73.3,60.9 v 694.1 c 0,137.4 112.3,249.4 250.2,249.4 137.8,0 250.1,-112 250.1,-249.4 v -17 z"/>
    </clipPath>
    <linearGradient id="linearGradient59" spreadMethod="pad" gradientTransform="matrix(547.051,0,0,-547.051,2742.54,6942.07)" gradientUnits="userSpaceOnUse" y2="0" x2="1" y1="0" x1="0">
      <stop id="stop58" offset="0" style="stop-opacity:1;stop-color:#5fabe2"/>
      <stop id="stop59" offset="1" style="stop-opacity:1;stop-color:#4360b5"/>
    </linearGradient>
    <clipPath id="clipPath59" clipPathUnits="userSpaceOnUse">
      <path id="path59" transform="translate(0,-2.5e-4)" d="m 3159.51,7007.11 h -286.88 c -71.85,0 -130.09,-58.24 -130.09,-130.08 h 547.06 c 0,71.84 -58.25,130.08 -130.09,130.08 z"/>
    </clipPath>
  </defs>
  
    
  
  <g id="g1">
    <g id="group-R5">
      <path transform="matrix(0.13333333,0,0,-0.13333333,0,1252.7333)" style="fill:#2e3591;fill-opacity:1;fill-rule:nonzero;stroke:none" d="m 143.102,11.5195 c -42.899,0 -77.4809,13.2891 -103.7231,39.8516 C 13.125,77.9297 0,112.02 0,153.652 c 0,20.477 3.85156,39.7 11.5352,57.618 7.6796,17.921 20.4726,34.89 38.4023,50.91 L 354.387,533 c 1.277,1.27 2.402,2.891 3.359,4.809 0.957,1.921 1.438,4.152 1.438,6.722 0,3.188 -0.957,6.25 -2.875,9.121 -1.922,2.879 -4.176,5.129 -6.723,6.727 -2.563,1.59 -5.453,2.402 -8.645,2.402 H 16.3281 v 121 H 361.102 c 28.82,0 53.937,-6.09 75.398,-18.242 21.445,-12.18 38.09,-28.82 49.938,-49.937 11.843,-21.133 17.761,-45.782 17.761,-73.961 0,-19.84 -3.683,-38.879 -11.039,-57.141 -7.367,-18.238 -19.367,-34.73 -36.008,-49.461 L 148.863,162.301 c -0.64,-0.649 -1.437,-1.61 -2.394,-2.879 -0.973,-1.301 -1.617,-2.57 -1.934,-3.852 -0.324,-1.281 -0.476,-2.871 -0.476,-4.8 0,-3.211 0.793,-6.231 2.41,-9.118 1.59,-2.882 3.836,-5.132 6.711,-6.73 2.89,-1.602 5.918,-2.402 9.136,-2.402 H 509.008 V 11.5195 H 143.102" id="path2"/>
      <path transform="matrix(0.13333333,0,0,-0.13333333,0,1252.7333)" style="fill:#2e3591;fill-opacity:1;fill-rule:nonzero;stroke:none" d="m 715.477,302.512 h 204.554 c -1.285,12.16 -3.523,23.519 -6.722,34.097 -3.207,10.563 -7.684,19.993 -13.438,28.332 -5.769,8.309 -12.492,15.36 -20.176,21.118 -7.683,5.773 -16.652,10.242 -26.886,13.461 -10.243,3.191 -21.461,4.789 -33.61,4.789 -16.011,0 -30.254,-2.879 -42.746,-8.637 -12.476,-5.77 -22.898,-13.453 -31.211,-23.051 -8.328,-9.601 -14.879,-20.492 -19.683,-32.652 -4.809,-12.16 -8.164,-24.66 -10.082,-37.457 z M 851.852,11.5195 c -55.704,0 -104.204,10.711 -145.497,32.1719 -41.304,21.4492 -73.328,50.7305 -96.05,87.8676 -22.723,37.132 -34.09,78.761 -34.09,124.863 0,51.848 10.57,96.988 31.691,135.41 21.137,38.41 49.942,68.188 86.438,89.309 36.5,21.14 77.797,31.699 123.894,31.699 55.051,0 99.711,-11.531 133.965,-34.59 34.242,-23.031 59.387,-53.93 75.397,-92.66 16,-38.75 24.01,-81.789 24.01,-129.168 0,-6.41 -0.33,-13.93 -0.96,-22.57 -0.64,-8.653 -1.62,-15.223 -2.89,-19.7 H 716.438 c 5.109,-19.843 13.925,-36.492 26.402,-49.933 12.492,-13.449 28.176,-23.528 47.058,-30.258 18.879,-6.711 40.176,-10.082 63.872,-10.082 H 990.141 V 11.5195 H 851.852" id="path3"/>
      <path transform="matrix(0.13333333,0,0,-0.13333333,0,1252.7333)" style="fill:#2e3591;fill-opacity:1;fill-rule:nonzero;stroke:none" d="M 1139.96,11.5195 V 362.063 c 0,43.519 12.33,77.628 36.98,102.277 24.65,24.64 58.73,36.969 102.28,36.969 h 135.42 v -112.36 h -112.37 c -8.33,0 -15.53,-2.89 -21.61,-8.648 -6.09,-5.77 -9.12,-13.121 -9.12,-22.09 V 11.5195 h -131.58" id="path4"/>
      <path transform="matrix(0.13333333,0,0,-0.13333333,0,1252.7333)" style="fill:#2e3591;fill-opacity:1;fill-rule:nonzero;stroke:none" d="m 1721.94,112.359 c 26.9,0 50.09,6.383 69.63,19.2 19.52,12.812 34.57,30.093 45.15,51.871 10.55,21.75 15.85,46.09 15.85,72.992 0,26.879 -5.3,51.207 -15.85,72.976 -10.58,21.762 -25.63,39.051 -45.15,51.864 -19.54,12.808 -42.73,19.207 -69.63,19.207 -26.89,0 -50.1,-6.399 -69.62,-19.207 -19.54,-12.813 -34.58,-30.102 -45.14,-51.864 -10.56,-21.769 -15.85,-46.097 -15.85,-72.976 0,-26.902 5.29,-51.242 15.85,-72.992 10.56,-21.778 25.6,-39.059 45.14,-51.871 19.52,-12.817 42.73,-19.2 69.62,-19.2 z M 1721.94,0 c -50.58,0 -95.72,11.3711 -135.41,34.0898 -39.71,22.7188 -71.07,53.4415 -94.11,92.1912 -23.05,38.731 -34.58,82.117 -34.58,130.141 0,48.008 11.53,91.379 34.58,130.129 23.04,38.73 54.4,69.461 94.11,92.199 39.69,22.711 84.83,34.09 135.41,34.09 50.58,0 95.71,-11.379 135.42,-34.09 39.69,-22.738 71.07,-53.469 94.12,-92.199 23.05,-38.75 34.56,-82.121 34.56,-130.129 0,-48.024 -11.51,-91.41 -34.56,-130.141 C 1928.43,87.5313 1897.05,56.8086 1857.36,34.0898 1817.65,11.3711 1772.52,0 1721.94,0" id="path5"/>
      <path clip-path="url(#clipPath7)" transform="matrix(0.13333333,0,0,-0.13333333,0,1252.7333)" style="fill:url(#linearGradient7);fill-opacity:1;fill-rule:nonzero;stroke:none" d="M 2085.91,11.5195 V 132.52 h 288.12 c 14.08,0 26.9,3.511 38.42,10.57 11.53,7.039 20.8,16.473 27.85,28.332 7.05,11.828 10.57,24.808 10.57,38.898 0,14.719 -3.52,27.993 -10.57,39.852 -7.05,11.84 -16.32,21.277 -27.85,28.328 -11.52,7.039 -24.34,10.57 -38.42,10.57 h -112.36 c -37.79,0 -72.03,7.692 -102.77,23.051 -30.71,15.371 -55.2,37.598 -73.46,66.738 -18.25,29.141 -27.37,64.18 -27.37,105.161 0,40.332 8.64,75.402 25.93,105.16 17.28,29.781 40.65,52.98 70.11,69.629 29.43,16.652 62.1,24.972 97.95,24.972 h 291.97 v -121 h -278.51 c -12.82,0 -24.66,-3.359 -35.55,-10.09 -10.89,-6.722 -19.36,-15.531 -25.44,-26.402 -6.1,-10.91 -9.12,-23.047 -9.12,-36.5 0,-13.449 3.02,-25.617 9.12,-36.5 6.08,-10.887 14.55,-19.527 25.44,-25.93 10.89,-6.41 22.73,-9.597 35.55,-9.597 h 116.19 c 41.62,0 77.8,-8.012 108.53,-24.012 30.74,-16.008 54.58,-38.418 71.55,-67.23 16.96,-28.809 25.45,-62.418 25.45,-100.829 0,-45.48 -8.81,-84.211 -26.41,-116.222 -17.62,-32.0198 -41.29,-56.3401 -71.07,-72.9885 -29.78,-16.6485 -62.59,-24.961 -98.43,-24.961 h -305.42" id="path6"/>
      <path clip-path="url(#clipPath9)" transform="matrix(0.13333333,0,0,-0.13333333,0,1252.7333)" style="fill:url(#linearGradient9);fill-opacity:1;fill-rule:nonzero;stroke:none" d="m 2922.41,0 c -49.93,0 -92.85,9.92969 -128.69,29.7617 -35.87,19.8477 -63.23,46.418 -82.12,79.7073 -18.89,33.281 -28.32,70.113 -28.32,110.453 v 281.387 h 131.56 V 219.922 c 0,-19.852 4.81,-37.942 14.41,-54.262 9.6,-16.328 22.57,-29.289 38.9,-38.898 16.32,-9.602 34.4,-14.403 54.26,-14.403 19.83,0 37.94,4.801 54.26,14.403 16.33,9.609 29.29,22.57 38.89,38.898 9.61,16.32 14.41,34.41 14.41,54.262 v 281.387 h 131.59 V 219.922 c 0,-40.34 -9.49,-77.172 -28.36,-110.453 C 3114.33,76.1797 3087.11,49.6094 3051.58,29.7617 3016.05,9.92969 2972.98,0 2922.41,0" id="path8"/>
      <path clip-path="url(#clipPath11)" transform="matrix(0.13333333,0,0,-0.13333333,0,1252.7333)" style="fill:url(#linearGradient11);fill-opacity:1;fill-rule:nonzero;stroke:none" d="M 3286.39,11.5195 V 302.512 c 0,38.418 9.26,73.629 27.86,105.648 18.54,32.012 45.27,57.449 80.19,76.34 34.87,18.891 76.96,28.34 126.29,28.34 23.67,0 45.6,-2.738 65.78,-8.16 20.17,-5.45 38.89,-13.301 56.17,-23.539 17.29,-10.243 32.33,-22.422 45.14,-36.493 h 0.96 c 13.46,14.071 28.82,26.25 46.1,36.493 17.29,10.238 36.16,18.089 56.68,23.539 20.46,5.422 42.57,8.16 66.26,8.16 49.28,0 91.37,-9.449 126.3,-28.34 34.87,-18.891 61.59,-44.328 80.18,-76.34 18.55,-32.019 27.84,-67.23 27.84,-105.648 V 11.5195 H 3960.57 V 302.512 c 0,17.918 -4.64,34.25 -13.93,48.988 -9.28,14.711 -21.6,26.559 -36.96,35.52 -15.37,8.96 -32.65,13.449 -51.86,13.449 -18.6,0 -35.7,-4.489 -51.4,-13.449 -15.7,-8.961 -28.16,-20.809 -37.44,-35.52 -9.29,-14.738 -13.93,-31.07 -13.93,-48.988 V 11.5195 H 3623.48 V 302.512 c 0,17.918 -4.64,34.25 -13.93,48.988 -9.28,14.711 -21.6,26.559 -36.97,35.52 -15.36,8.96 -32.65,13.449 -51.85,13.449 -18.59,0 -35.7,-4.489 -51.4,-13.449 -15.69,-8.961 -28.16,-20.809 -37.44,-35.52 -9.29,-14.738 -13.93,-31.07 -13.93,-48.988 V 11.5195 h -131.57" id="path10"/>
      <path transform="matrix(0.13333333,0,0,-0.13333333,0,1252.7333)" style="fill:#2e3591;fill-opacity:1;fill-rule:nonzero;stroke:none" d="m 4393.7,11.5195 c -37.15,0 -70.93,8.961 -101.31,26.8789 -30.43,17.9219 -54.61,42.1133 -72.52,72.5116 -17.95,30.399 -26.9,64.18 -26.9,101.328 0,26.891 5.78,52.172 17.29,75.871 11.53,23.68 27.22,44.493 47.06,62.422 -19.84,17.918 -35.53,38.731 -47.06,62.43 -11.51,23.668 -17.29,48.641 -17.29,74.91 0,36.481 8.81,69.461 26.42,98.918 17.61,29.441 41.3,52.973 71.08,70.582 29.75,17.598 62.55,26.41 98.43,26.41 h 276.59 v -121 h -261.22 c -13.45,0 -25.79,-3.359 -36.99,-10.09 -11.21,-6.722 -20.16,-15.691 -26.88,-26.902 -6.73,-11.199 -10.09,-23.848 -10.09,-37.918 0,-13.449 3.36,-25.789 10.09,-36.98 6.72,-11.2 15.67,-20.161 26.88,-26.879 11.2,-6.731 23.54,-10.102 36.99,-10.102 h 228.56 v -121 h -222.8 c -14.74,0 -28.19,-3.691 -40.36,-11.051 -12.16,-7.359 -21.75,-17.129 -28.79,-29.289 -7.06,-12.16 -10.57,-25.609 -10.57,-40.332 0,-14.738 3.51,-28.187 10.57,-40.34 7.04,-12.16 16.63,-21.769 28.79,-28.808 12.17,-7.059 25.62,-10.57 40.36,-10.57 h 255.46 V 11.5195 H 4393.7" id="path12"/>
      <path transform="matrix(0.13333333,0,0,-0.13333333,0,1252.7333)" style="fill:#2e3591;fill-opacity:1;fill-rule:nonzero;stroke:none" d="m 4980.47,0 c -28.79,0 -54.9,7.67969 -78.27,23.0391 -23.37,15.3593 -39.54,35.5429 -48.5,60.5117 L 4713.51,501.309 h 143.09 l 113.33,-363.977 c 1.25,-2.57 2.87,-4.492 4.79,-5.773 1.92,-1.278 4.16,-1.911 6.71,-1.911 2.55,0 4.97,0.633 7.22,1.911 2.22,1.281 3.68,3.203 4.31,5.773 l 114.28,363.977 h 140.22 L 5107.24,84.5 C 5098.29,59.5391 5082.11,39.1992 5058.75,23.5313 5035.38,7.85156 5009.29,0 4980.47,0" id="path13"/>
      <path transform="matrix(0.13333333,0,0,-0.13333333,0,1252.7333)" style="fill:#2e3591;fill-opacity:1;fill-rule:nonzero;stroke:none" d="m 5530.76,112.359 c 25.61,0 47.69,6.383 66.28,19.2 18.55,12.812 32.78,30.261 42.73,52.351 9.91,22.078 14.88,46.57 14.88,73.469 0,26.883 -4.97,51.043 -14.88,72.5 -9.95,21.461 -24.18,38.57 -42.73,51.383 -18.59,12.808 -40.67,19.207 -66.28,19.207 -26.25,0 -48.83,-6.399 -67.7,-19.207 -18.9,-12.813 -33.31,-29.922 -43.23,-51.383 -9.91,-21.457 -14.89,-45.617 -14.89,-72.5 0,-26.899 4.98,-51.391 14.89,-73.469 9.92,-22.09 24.33,-39.539 43.23,-52.351 18.87,-12.817 41.45,-19.2 67.7,-19.2 z M 5493.31,0 c -44.82,0 -83.87,11.5195 -117.15,34.5703 -33.31,23.0508 -59.08,53.9297 -77.32,92.6797 -18.24,38.719 -27.38,81.469 -27.38,128.211 0,48.019 10.39,91.551 31.21,130.598 20.8,39.062 50.75,69.953 89.81,92.691 39.04,22.711 85.79,34.09 140.2,34.09 55.05,0 101.49,-11.531 139.26,-34.59 37.77,-23.031 66.59,-54.09 86.45,-93.141 19.83,-39.058 29.75,-82.289 29.75,-129.648 V 11.5195 h -131.57 v 81.6289 h -1.92 c -9.59,-17.289 -21.6,-32.9765 -36.01,-47.0586 C 5604.23,32.0117 5586.77,20.7891 5566.31,12.4805 5545.8,4.16016 5521.47,0 5493.31,0" id="path14"/>
      <path transform="matrix(0.13333333,0,0,-0.13333333,0,1252.7333)" style="fill:#2e3591;fill-opacity:1;fill-rule:nonzero;stroke:none" d="M 5912.99,11.5195 V 712.602 h 131.57 V 11.5195 h -131.57" id="path15"/>
      <path clip-path="url(#clipPath17)" transform="matrix(0.13333333,0,0,-0.13333333,0,1252.7333)" style="fill:url(#linearGradient17);fill-opacity:1;fill-rule:nonzero;stroke:none" d="m 3688.68,2579.01 h -35 v 890.69 l -24.1,7.9 c -196.5,64.7 -400.9,97.5 -607.5,97.5 -6.7,0 -13.4,0 -20.2,-0.1 -199.7,-2.1 -397.3,-34.8 -587.3,-97.4 l -24,-7.9 v -890.69 h -35 V 3495 l 48.1,15.8 c 193.4,63.7 394.6,97.1 597.9,99.2 6.9,0.1 13.7,0.1 20.5,0.1 210.3,0 418.4,-33.4 618.5,-99.3 l 48.1,-15.8 v -915.99" id="path16"/>
      <path transform="matrix(0.13333333,0,0,-0.13333333,0,1252.7333)" style="fill:#2e3591;fill-opacity:1;fill-rule:nonzero;stroke:none" d="m 3022.21,1530.02 c -1.26,0 -2.5,0 -3.76,0.01 h 7.5 c -1.25,-0.01 -2.49,-0.01 -3.74,-0.01" id="path18"/>
      <path clip-path="url(#clipPath20)" transform="matrix(0.13333333,0,0,-0.13333333,0,1252.7333)" style="fill:#2e3591;fill-opacity:1;fill-rule:nonzero;stroke:none" d="m 3025.95,1530.03 h -7.5 c -121.65,0.76 -235.73,38.32 -329.82,101.96 -95.24,64.3 -170.6,155.21 -216.06,262.37 -30.24,71.38 -47.01,150.2 -47.01,232.3 v 1317.7 c 134.8,44.38 333.31,93.11 576.72,95.64 6.65,0.07 13.22,0.1 19.8,0.1 253.92,0 460.08,-50.81 596.6,-95.74 v -1317.7 c 0.17,-123.07 -37.68,-238.7 -101.98,-333.58 -64.29,-95.24 -155.04,-170.6 -262.19,-216.05 -70.47,-29.79 -147.98,-46.5 -228.56,-47 m 71.44,824.09 -322.35,-267.55 -62.74,-52.21 c 9.33,-31.79 23.51,-61.53 41.65,-88.48 2.25,-3.29 4.33,-6.4 6.74,-9.51 1.73,-2.59 3.63,-5.01 5.53,-7.44 2.25,-2.94 4.5,-5.7 6.74,-8.64 3.29,-3.62 6.4,-7.43 9.69,-10.89 10.37,-11.58 21.6,-22.29 33.53,-32.15 l 0.69,-0.51 c 5.87,-4.84 11.92,-9.34 17.97,-13.83 l 0.7,-0.34 c 17.45,-12.45 36.29,-22.99 56.17,-31.81 1.9,-0.87 3.8,-1.9 5.87,-2.76 8.82,-3.64 17.98,-6.92 27.31,-9.86 l 1.38,-0.52 c 8.3,-2.59 16.95,-4.84 25.59,-6.73 22.46,-5.01 45.97,-7.61 70.34,-7.79 h 6.4 c 2.07,0 4.15,0.18 6.22,0.18 8.13,0.34 16.07,1.03 24.03,1.9 0.86,0.18 1.89,0.18 2.93,0.34 27.66,3.46 54.1,10.2 79.16,20.05 3.63,1.56 7.26,2.94 10.72,4.51 7.09,3.28 14.17,6.56 21.08,10.18 3.46,1.91 6.92,3.81 10.38,5.71 3.45,2.08 6.73,3.98 10.02,6.05 3.45,2.07 6.57,4.33 9.86,6.4 4.66,3.1 9.5,6.57 13.99,10.02 4.49,3.46 8.99,7.08 13.49,10.72 l 0.86,0.86 c 8.82,7.44 17.11,15.21 25.07,23.5 6.38,6.75 12.6,13.83 18.31,21.1 0.87,1.21 1.73,2.23 2.6,3.44 5,6.24 9.67,12.8 14.16,19.55 0.87,1.2 1.73,2.58 2.6,3.79 4.32,6.74 8.47,13.66 12.27,20.75 0.69,1.37 1.38,2.58 2.08,3.8 3.8,7.25 7.43,14.69 10.71,22.29 0.52,1.21 1.21,2.6 1.73,3.81 1.39,3.45 2.76,7.08 4.15,10.71 1.21,3.46 2.59,6.92 3.62,10.37 1.21,3.63 2.43,7.26 3.46,10.89 1.22,3.63 2.08,7.26 3.11,11.07 0.87,3.45 1.91,6.91 2.59,10.53 1.57,7.09 3.12,14.35 4.16,21.61 2.42,16.07 3.63,32.49 3.63,49.43 V 2822 l 0.17,0.17 103.7,86.07 c 8.82,-2.94 17.98,-4.83 27.65,-4.83 48.92,0 88.5,39.57 88.5,88.49 0,48.91 -39.58,88.49 -88.5,88.49 -48.91,0 -88.49,-39.58 -88.49,-88.49 0,-3.98 0.7,-7.78 1.21,-11.75 l -44.07,-36.47 -0.17,-0.18 v 0.18 l -73.28,-60.85 -195.48,-162.29 0.16,-0.18 c 0.35,-3.8 1.04,-7.6 1.04,-11.57 0,-48.92 -39.58,-88.5 -88.49,-88.5 -9.68,0 -18.85,1.91 -27.48,4.67 -35.44,11.75 -61.02,44.59 -61.02,83.83 0,48.91 39.58,88.48 88.5,88.48 9.67,0 19,-1.89 27.65,-4.83 l 255.12,211.73 70.34,58.42 c -5.01,38.2 -16.42,73.8 -33.36,106.47 -2.94,5.53 -5.87,10.89 -8.99,16.07 -3.1,5.36 -6.39,10.54 -9.85,15.56 -2.25,3.11 -4.32,6.39 -6.74,9.5 -2.25,3.12 -4.49,6.22 -6.91,9.16 -4.85,6.22 -9.86,12.1 -15.04,17.81 l -0.34,0.34 c -20.58,22.82 -44.43,42.53 -70.7,58.59 l -1.9,1.04 c -11.93,7.44 -24.54,13.82 -37.68,19.53 -1.03,0.52 -2.08,0.87 -3.11,1.39 -4.84,2.07 -9.68,3.97 -14.69,5.7 -4.84,1.9 -9.85,3.45 -14.86,5.01 -30.25,9.51 -62.57,14.52 -96.28,14.69 -16.76,0 -33.18,-1.37 -49.08,-3.8 h -0.7 c -5.18,-0.86 -10.36,-1.73 -15.55,-2.94 -4.49,-0.69 -8.82,-1.72 -12.96,-2.93 -4.85,-1.05 -9.51,-2.42 -14.01,-3.81 -4.66,-1.21 -9.15,-2.77 -13.65,-4.32 -5.53,-1.9 -11.06,-3.98 -16.42,-6.23 -4.15,-1.72 -8.47,-3.62 -12.61,-5.53 -5.36,-2.41 -10.89,-5.18 -16.25,-8.12 -10.2,-5.35 -20.06,-11.23 -29.56,-17.63 -6.39,-4.31 -12.79,-8.98 -18.84,-13.83 -42.86,-33.52 -77.09,-77.95 -98.52,-128.58 -16.24,-38.55 -25.23,-80.72 -25.4,-125.84 v -753.74 l -0.17,-0.17 -33.36,-27.66 c -8.64,2.94 -17.98,4.84 -27.66,4.84 -48.91,0 -88.5,-39.59 -88.5,-88.49 0,-48.92 39.59,-88.5 88.5,-88.5 24.54,0 46.67,10.03 62.74,26.09 15.9,15.91 25.75,37.86 25.75,62.41 0,3.97 -0.69,7.77 -1.03,11.58 l 47.01,39.05 265.82,220.72 v 0.17 c -0.51,3.81 -1.2,7.61 -1.2,11.58 0,48.92 39.58,88.5 88.49,88.5 9.68,0 18.85,-1.91 27.48,-4.67 35.44,-11.75 61.01,-44.59 61.01,-83.83 0,-48.9 -39.58,-88.48 -88.49,-88.48 -9.68,0 -18.84,1.89 -27.65,4.83" id="path19"/>
      <path clip-path="url(#clipPath22)" transform="matrix(0.13333333,0,0,-0.13333333,0,1252.7333)" style="fill:#ffffff;fill-opacity:1;fill-rule:nonzero;stroke:none" d="m 3028.6,1803.1 h -6.4 c -24.37,0.18 -47.88,2.78 -70.34,7.79 -8.64,1.89 -17.29,4.14 -25.59,6.73 l -1.38,0.52 c -9.33,2.94 -18.49,6.22 -27.31,9.86 -2.07,0.86 -3.97,1.89 -5.87,2.76 -19.88,8.82 -38.72,19.36 -56.17,31.81 l -0.7,0.34 c -6.05,4.49 -12.1,8.99 -17.97,13.83 l -0.69,0.51 c -11.93,9.86 -23.16,20.57 -33.53,32.15 -3.29,3.46 -6.4,7.27 -9.69,10.89 -2.24,2.94 -4.49,5.7 -6.74,8.64 -1.9,2.43 -3.8,4.85 -5.53,7.44 -2.41,3.11 -4.49,6.22 -6.74,9.51 -18.14,26.95 -32.32,56.69 -41.65,88.48 l 62.74,52.21 322.35,267.55 c 8.81,-2.94 17.97,-4.83 27.65,-4.83 48.91,0 88.49,39.58 88.49,88.48 0,39.24 -25.57,72.08 -61.01,83.83 -8.63,2.76 -17.8,4.67 -27.48,4.67 -48.91,0 -88.49,-39.58 -88.49,-88.5 0,-3.97 0.69,-7.77 1.2,-11.58 v -0.17 l -265.82,-220.72 -47.01,-39.05 c 0.34,-3.81 1.03,-7.61 1.03,-11.58 0,-24.55 -9.85,-46.5 -25.75,-62.41 -16.07,-16.06 -38.2,-26.09 -62.74,-26.09 -48.91,0 -88.5,39.58 -88.5,88.5 0,48.9 39.59,88.49 88.5,88.49 9.68,0 19.02,-1.9 27.66,-4.84 l 33.36,27.66 0.17,0.17 v 753.74 c 0.17,45.12 9.16,87.29 25.4,125.84 21.43,50.63 55.66,95.06 98.52,128.58 6.05,4.85 12.45,9.52 18.84,13.83 9.5,6.4 19.36,12.28 29.56,17.63 5.36,2.94 10.89,5.71 16.25,8.12 4.14,1.91 8.46,3.81 12.61,5.53 5.36,2.25 10.89,4.33 16.42,6.23 4.5,1.55 8.99,3.11 13.65,4.32 4.5,1.39 9.16,2.76 14.01,3.81 4.14,1.21 8.47,2.24 12.96,2.93 5.19,1.21 10.37,2.08 15.55,2.94 h 0.7 c 15.9,2.43 32.32,3.8 49.08,3.8 33.71,-0.17 66.03,-5.18 96.28,-14.69 5.01,-1.56 10.02,-3.11 14.86,-5.01 5.01,-1.73 9.85,-3.63 14.69,-5.7 1.03,-0.52 2.08,-0.87 3.11,-1.39 13.14,-5.71 25.75,-12.09 37.68,-19.53 l 1.9,-1.04 c 26.27,-16.06 50.12,-35.77 70.7,-58.59 l 0.34,-0.34 c 5.18,-5.71 10.19,-11.59 15.04,-17.81 2.42,-2.94 4.66,-6.04 6.91,-9.16 2.42,-3.11 4.49,-6.39 6.74,-9.5 3.46,-5.02 6.75,-10.2 9.85,-15.56 3.12,-5.18 6.05,-10.54 8.99,-16.07 16.94,-32.67 28.35,-68.27 33.36,-106.47 l -70.34,-58.42 -255.12,-211.73 c -8.65,2.94 -17.98,4.83 -27.65,4.83 -48.92,0 -88.5,-39.57 -88.5,-88.48 0,-39.24 25.58,-72.08 61.02,-83.83 8.63,-2.76 17.8,-4.67 27.48,-4.67 48.91,0 88.49,39.58 88.49,88.5 0,3.97 -0.69,7.77 -1.04,11.57 l -0.16,0.18 195.48,162.29 73.28,60.85 v -0.18 l 0.17,0.18 44.07,36.47 c -0.51,3.97 -1.21,7.77 -1.21,11.75 0,48.91 39.58,88.49 88.49,88.49 48.92,0 88.5,-39.58 88.5,-88.49 0,-48.92 -39.58,-88.49 -88.5,-88.49 -9.67,0 -18.83,1.89 -27.65,4.83 l -103.7,-86.07 -0.17,-0.17 v -695.34 c 0,-16.94 -1.21,-33.36 -3.63,-49.43 -1.04,-7.26 -2.59,-14.52 -4.16,-21.61 -0.68,-3.62 -1.72,-7.08 -2.59,-10.53 -1.03,-3.81 -1.89,-7.44 -3.11,-11.07 -1.03,-3.63 -2.25,-7.26 -3.46,-10.89 -1.03,-3.45 -2.41,-6.91 -3.62,-10.37 -1.39,-3.63 -2.76,-7.26 -4.15,-10.71 -0.52,-1.21 -1.21,-2.6 -1.73,-3.81 -3.28,-7.6 -6.91,-15.04 -10.71,-22.29 -0.7,-1.22 -1.39,-2.43 -2.08,-3.8 -3.8,-7.09 -7.95,-14.01 -12.27,-20.75 -0.87,-1.21 -1.73,-2.59 -2.6,-3.79 -4.49,-6.75 -9.16,-13.31 -14.16,-19.55 -0.87,-1.21 -1.73,-2.23 -2.6,-3.44 -5.71,-7.27 -11.93,-14.35 -18.31,-21.1 -7.96,-8.29 -16.25,-16.06 -25.07,-23.5 l -0.86,-0.86 c -4.5,-3.64 -9,-7.26 -13.49,-10.72 -4.49,-3.45 -9.33,-6.92 -13.99,-10.02 -3.29,-2.07 -6.41,-4.33 -9.86,-6.4 -3.29,-2.07 -6.57,-3.97 -10.02,-6.05 -3.46,-1.9 -6.92,-3.8 -10.38,-5.71 -6.91,-3.62 -13.99,-6.9 -21.08,-10.18 -3.46,-1.57 -7.09,-2.95 -10.72,-4.51 -25.06,-9.85 -51.5,-16.59 -79.16,-20.05 -1.04,-0.16 -2.07,-0.16 -2.93,-0.34 -7.96,-0.87 -15.9,-1.56 -24.03,-1.9 -2.07,0 -4.15,-0.18 -6.22,-0.18" id="path21"/>
      <path clip-path="url(#clipPath24)" transform="matrix(0.13333333,0,0,-0.13333333,0,1252.7333)" style="fill:url(#linearGradient24);fill-opacity:1;fill-rule:nonzero;stroke:none" d="m 3345.58,2822 -73.3,-60.9 v -635.5 c 0,-137.4 -112.3,-249.4 -250.1,-249.4 -124.6,0 -228.3,91.4 -247.1,210.4 l -63.2,-52.5 c 9.4,-31.7 23.8,-61.4 42.1,-88.2 2.2,-3.3 4.3,-6.4 6.7,-9.5 1.7,-2.6 3.6,-5.1 5.6,-7.5 2.2,-2.9 4.4,-5.7 6.7,-8.6 3.1,-3.8 6.4,-7.4 9.7,-10.9 10.3,-11.6 21.6,-22.3 33.5,-32.1 l 0.7,-0.6 c 5.9,-4.8 11.9,-9.3 18,-13.8 l 0.7,-0.3 c 17.4,-12.5 36.3,-23 56.1,-31.8 1.9,-0.9 3.8,-1.9 5.9,-2.8 8.8,-3.6 18,-6.9 27.3,-9.9 l 1.4,-0.5 c 8.3,-2.6 16.9,-4.8 25.6,-6.7 22.6,-5.2 46.1,-8 70.3,-8 2.3,0 4.3,0 6.4,0.2 2.1,0 4.2,0.2 6.2,0.2 8.2,0.3 16.1,1 24.1,1.9 0.8,0.2 1.9,0.2 2.9,0.3 27.7,3.1 54.1,10 79.2,20.1 3.6,1.5 7.2,2.9 10.7,4.5 7.1,3.2 14.2,6.5 21.1,10.2 3.4,1.9 6.9,3.8 10.3,5.7 3.5,2 6.8,3.9 10.1,6 3.4,2.1 6.5,4.3 9.8,6.4 4.7,3.1 9.5,6.6 14,10 4.5,3.5 9,7.1 13.5,10.8 l 0.9,0.8 c 8.8,7.4 17.1,15.2 25,23.5 6.4,6.8 12.6,13.8 18.3,21.1 0.9,1.2 1.8,2.3 2.6,3.5 5.1,6.2 9.7,12.8 14.2,19.5 0.9,1.2 1.7,2.6 2.6,3.8 4.3,6.7 8.5,13.7 12.3,20.7 0.7,1.4 1.4,2.6 2.1,3.8 3.8,7.3 7.4,14.7 10.7,22.3 0.5,1.2 1.2,2.6 1.7,3.8 1.4,3.5 2.8,7.1 4.1,10.8 1.3,3.4 2.6,6.9 3.7,10.3 1.2,3.7 2.4,7.3 3.4,10.9 1.2,3.6 2.1,7.3 3.1,11.1 0.9,3.4 1.9,6.9 2.6,10.5 1.6,7.1 3,14.4 4.2,21.6 2.6,15.9 3.8,32 3.8,48.4 v 696.6 z m -2.5,240.5 c -4.9,38 -16.6,73.9 -33.8,106.6 -2.9,5.5 -5.9,10.8 -9,16 -3.1,5.4 -6.4,10.6 -9.8,15.6 -2.3,3.1 -4.3,6.4 -6.8,9.5 -2.2,3.1 -4.5,6.2 -6.9,9.1 -4.8,6.3 -9.8,12.1 -15,17.9 l -0.4,0.3 c -20.5,22.8 -44.4,42.5 -70.7,58.6 l -1.9,1 c -12.1,7.3 -24.7,13.9 -37.6,19.6 -1.1,0.5 -2.1,0.8 -3.1,1.3 -4.9,2.1 -9.7,4 -14.7,5.7 -4.9,1.9 -9.9,3.5 -14.9,5.1 -30.4,9.8 -62.7,15 -96.3,15 -16.7,0 -33,-1.7 -49.1,-4.2 h -0.7 c -5.1,-0.8 -10.3,-1.7 -15.5,-2.9 -4.5,-0.9 -8.8,-1.7 -13,-2.9 -4.8,-1.1 -9.3,-2.5 -14,-3.8 -4.6,-1.4 -9.1,-2.8 -13.6,-4.4 -5.6,-1.9 -11.1,-3.9 -16.4,-6.2 -4.2,-1.7 -8.5,-3.6 -12.7,-5.5 -5.3,-2.4 -10.8,-5.2 -16.2,-8.1 -10.2,-5.2 -20.1,-11.1 -29.6,-17.7 -6.4,-4.3 -12.8,-8.9 -18.8,-13.8 -75.5,-58.8 -124.1,-150.4 -124.1,-253.2 V 2266 l 0.2,0.1 73.3,60.9 v 694.1 c 0,137.4 112.3,249.4 250.2,249.4 137.8,0 250.1,-112 250.1,-249.4 v -17 l 70.8,58.4" id="path23"/>
      <path transform="matrix(0.13333333,0,0,-0.13333333,0,1252.7333)" style="fill:#2e3591;fill-opacity:1;fill-rule:nonzero;stroke:none" d="m 3152.53,2521.6 c -8.64,2.76 -17.8,4.66 -27.48,4.66 -48.92,0 -88.5,-39.58 -88.5,-88.49 0,-3.98 0.69,-7.78 1.21,-11.58 v -0.18 L 2771.93,2205.3 v -79.68 c 0,-13.31 1.04,-26.27 3.12,-39.06 l 322.34,267.55 c 8.82,-2.94 17.98,-4.83 27.66,-4.83 48.91,0 88.49,39.57 88.49,88.49 0,39.23 -25.58,72.07 -61.01,83.83" id="path25"/>
      <path transform="matrix(0.13333333,0,0,-0.13333333,0,1252.7333)" style="fill:#2e3591;fill-opacity:1;fill-rule:nonzero;stroke:none" d="m 3196.57,1291.78 h -348.9 l 59.68,316.54 h 229.54 l 59.68,-316.54" id="path26"/>
      <path clip-path="url(#clipPath28)" transform="matrix(0.13333333,0,0,-0.13333333,0,1252.7333)" style="fill:url(#linearGradient28);fill-opacity:1;fill-rule:nonzero;stroke:none" d="m 3159.51,1221.7 h -286.88 c -71.85,0 -130.09,-58.24 -130.09,-130.09 h 547.06 c 0,71.85 -58.25,130.09 -130.09,130.09" id="path27"/>
      <path transform="matrix(0.13333333,0,0,-0.13333333,0,1252.7333)" style="fill:#2e3591;fill-opacity:1;fill-rule:nonzero;stroke:none" d="m 3370.28,1018.4 h -708.42 c -95.54,0 -172.99,-77.451 -172.99,-172.99 h 1054.4 c 0,95.539 -77.45,172.99 -172.99,172.99" id="path29"/>
      <path transform="matrix(0.13333333,0,0,-0.13333333,0,1252.7333)" style="fill:#2e3591;fill-opacity:1;fill-rule:nonzero;stroke:none" d="m 4028.08,3457.65 v -0.1 l -1.1,0.1 z" id="path30"/>
      <path transform="matrix(0.13333333,0,0,-0.13333333,0,1252.7333)" style="fill:#2e3591;fill-opacity:1;fill-rule:nonzero;stroke:none" d="m 1757.97,3037.71 c 0.57,7.02 0.97,13.97 1.86,20.99 l 3.39,21.07 c 1.53,6.94 3.47,13.81 5.25,20.67 7.99,27.37 20.35,53.29 36.01,76.62 31.32,46.75 76.05,83.24 127.4,104.56 25.59,10.73 52.8,18 80.57,21.15 4.69,0.48 14.7,0.81 28.34,0.97 l 0.89,0.08 c 53.21,-1.46 97.05,-10.5 132.98,-24.3 26.96,-10.34 49.41,-23.58 67.41,-38.03 3.64,-2.91 7.03,-5.81 10.26,-8.8 21.15,-19.06 34.87,-39.4 43.27,-56.03 3.71,-7.35 9.53,-24.63 9.29,-26.97 0.96,-5.17 1.53,-10.41 1.53,-15.82 0,-46.91 -38.03,-85.02 -85.02,-85.02 -46.9,0 -84.93,38.11 -84.93,85.02 0,10.89 2.1,21.31 5.89,30.92 -48.04,26.48 -104.55,19.94 -104.55,19.94 -3.96,-0.08 -7.83,-0.32 -11.63,-0.73 -16.15,-2.09 -32.05,-6.62 -47.07,-13.16 -15.1,-6.53 -29.23,-15.17 -42.14,-25.43 -12.76,-10.25 -23.82,-22.52 -32.86,-35.76 -9.04,-13.33 -15.99,-27.78 -20.59,-42.88 l -2.99,-11.38 -1.94,-11.63 c -0.56,-3.95 -0.72,-8.07 -1.13,-12.11 l -0.24,-12.35 c 0.49,-33.26 10.82,-68.55 26.81,-103.58 7.99,-17.53 17.44,-34.97 28.01,-52.24 5.17,-8.64 10.82,-17.2 16.71,-25.6 5.98,-8.47 11.47,-17.03 17.69,-25.35 24.54,-33.42 52.15,-65.72 80.65,-98.01 57.33,-64.51 120.54,-128.05 178.35,-199.91 28.66,-36.33 55.71,-74.76 79.77,-115.69 9.76,-17.25 18.65,-35.03 26.8,-53.2 44.85,-0.47 81.08,-36.94 81.08,-81.9 0,-0.93 -0.11,-1.84 -0.14,-2.76 0.03,-0.93 0.14,-1.83 0.14,-2.77 0,-27.95 -15.88,-52.16 -39.09,-64.22 -12.48,-7.68 -27.12,-12.19 -42.86,-12.19 -45.25,0 -81.94,36.68 -81.94,81.94 0,6.4 0.81,12.6 2.2,18.59 -11.19,24.44 -23.69,50.36 -32.58,64.92 -22.2,34.55 -47.39,67.65 -74.84,99.79 -28.02,31.89 -57.25,63.37 -87.84,94.7 -30.6,31.49 -61.85,63.06 -92.93,96 -30.93,33.26 -61.36,67.9 -89.87,105.28 -7.18,9.28 -13.8,19.13 -20.74,28.74 -6.95,9.53 -13.65,19.38 -20.03,29.55 -12.91,20.27 -25.02,41.5 -35.76,64.03 -21.56,44.8 -37.63,95.99 -39.08,151.46 -0.08,6.94 0,13.89 0.24,20.83" id="path31"/>
      <path transform="matrix(0.13333333,0,0,-0.13333333,0,1252.7333)" style="fill:#2e3591;fill-opacity:1;fill-rule:nonzero;stroke:none" d="m 4286.38,3037.71 c -0.56,7.02 -0.96,13.97 -1.85,20.99 l -3.39,21.07 c -1.54,6.94 -3.47,13.81 -5.25,20.67 -7.99,27.37 -20.35,53.29 -36.01,76.62 -31.33,46.75 -76.05,83.24 -127.4,104.56 -25.6,10.73 -52.8,18 -80.58,21.15 -4.68,0.48 -14.69,0.81 -28.34,0.97 l -0.88,0.08 c -53.21,-1.46 -97.05,-10.5 -132.98,-24.3 -26.97,-10.34 -49.41,-23.58 -67.41,-38.03 -3.64,-2.91 -7.03,-5.81 -10.26,-8.8 -21.15,-19.06 -34.88,-39.4 -43.27,-56.03 -3.72,-7.35 -9.53,-24.63 -9.29,-26.97 -0.97,-5.17 -1.53,-10.41 -1.53,-15.82 0,-46.91 38.02,-85.02 85.01,-85.02 46.91,0 84.94,38.11 84.94,85.02 0,10.89 -2.1,21.31 -5.89,30.92 48.03,26.48 104.55,19.94 104.55,19.94 3.96,-0.08 7.83,-0.32 11.63,-0.73 16.14,-2.09 32.05,-6.62 47.07,-13.16 15.1,-6.53 29.22,-15.17 42.14,-25.43 12.76,-10.25 23.82,-22.52 32.86,-35.76 9.04,-13.33 15.99,-27.78 20.59,-42.88 l 2.99,-11.38 1.93,-11.63 c 0.57,-3.95 0.73,-8.07 1.14,-12.11 l 0.24,-12.35 c -0.49,-33.26 -10.82,-68.55 -26.81,-103.58 -7.99,-17.53 -17.44,-34.97 -28.01,-52.24 -5.17,-8.64 -10.82,-17.2 -16.72,-25.6 -5.97,-8.47 -11.46,-17.03 -17.68,-25.35 -24.54,-33.42 -52.15,-65.72 -80.65,-98.01 -57.33,-64.51 -120.55,-128.05 -178.35,-199.91 -28.66,-36.33 -55.71,-74.76 -79.77,-115.69 -9.76,-17.25 -18.65,-35.03 -26.8,-53.2 -44.85,-0.47 -81.08,-36.94 -81.08,-81.9 0,-0.93 0.11,-1.84 0.14,-2.76 -0.03,-0.93 -0.14,-1.83 -0.14,-2.77 0,-27.95 15.88,-52.16 39.09,-64.22 12.48,-7.68 27.12,-12.19 42.85,-12.19 45.26,0 81.95,36.68 81.95,81.94 0,6.4 -0.81,12.6 -2.2,18.59 11.19,24.44 23.68,50.36 32.58,64.92 22.2,34.55 47.39,67.65 74.84,99.79 28.02,31.89 57.24,63.37 87.84,94.7 30.6,31.49 61.85,63.06 92.93,96 30.92,33.26 61.36,67.9 89.86,105.28 7.19,9.28 13.81,19.13 20.75,28.74 6.94,9.53 13.65,19.38 20.02,29.55 12.92,20.27 25.03,41.5 35.77,64.03 21.56,44.8 37.62,95.99 39.08,151.46 0.08,6.94 0,13.89 -0.25,20.83" id="path32"/>
      <path transform="matrix(0.13333333,0,0,-0.13333333,0,1252.7333)" style="fill:#2e3591;fill-opacity:1;fill-rule:nonzero;stroke:none" d="m 143.102,5796.93 c -42.899,0 -77.4809,13.28 -103.7231,39.85 C 13.125,5863.34 0,5897.43 0,5939.07 c 0,20.47 3.85156,39.69 11.5352,57.62 7.6796,17.91 20.4726,34.88 38.4023,50.9 l 304.4495,270.82 c 1.277,1.28 2.402,2.89 3.359,4.81 0.957,1.92 1.438,4.15 1.438,6.72 0,3.19 -0.957,6.25 -2.875,9.12 -1.922,2.88 -4.176,5.13 -6.723,6.73 -2.563,1.59 -5.453,2.4 -8.645,2.4 H 16.3281 v 121 H 361.102 c 28.82,0 53.937,-6.09 75.398,-18.24 21.445,-12.18 38.09,-28.82 49.938,-49.94 11.843,-21.13 17.761,-45.78 17.761,-73.96 0,-19.84 -3.683,-38.88 -11.039,-57.14 -7.367,-18.24 -19.367,-34.73 -36.008,-49.45 L 148.863,5947.71 c -0.64,-0.65 -1.437,-1.6 -2.394,-2.88 -0.973,-1.3 -1.617,-2.57 -1.934,-3.85 -0.324,-1.28 -0.476,-2.87 -0.476,-4.8 0,-3.21 0.793,-6.23 2.41,-9.12 1.59,-2.88 3.836,-5.13 6.711,-6.73 2.89,-1.6 5.918,-2.4 9.136,-2.4 h 346.692 v -121 H 143.102" id="path33"/>
      <path transform="matrix(0.13333333,0,0,-0.13333333,0,1252.7333)" style="fill:#2e3591;fill-opacity:1;fill-rule:nonzero;stroke:none" d="m 715.477,6087.92 h 204.554 c -1.285,12.16 -3.523,23.53 -6.722,34.1 -3.207,10.56 -7.684,20 -13.438,28.33 -5.769,8.31 -12.492,15.36 -20.176,21.13 -7.683,5.76 -16.652,10.23 -26.886,13.45 -10.243,3.19 -21.461,4.79 -33.61,4.79 -16.011,0 -30.254,-2.88 -42.746,-8.64 -12.476,-5.76 -22.898,-13.45 -31.211,-23.05 -8.328,-9.6 -14.879,-20.49 -19.683,-32.65 -4.809,-12.16 -8.164,-24.65 -10.082,-37.46 z m 136.375,-290.99 c -55.704,0 -104.204,10.71 -145.497,32.17 -41.304,21.45 -73.328,50.73 -96.05,87.88 -22.723,37.13 -34.09,78.75 -34.09,124.85 0,51.86 10.57,96.99 31.691,135.41 21.137,38.41 49.942,68.19 86.438,89.31 36.5,21.14 77.797,31.7 123.894,31.7 55.051,0 99.711,-11.53 133.965,-34.58 34.242,-23.04 59.387,-53.94 75.397,-92.67 16,-38.75 24.01,-81.79 24.01,-129.17 0,-6.41 -0.33,-13.93 -0.96,-22.57 -0.64,-8.65 -1.62,-15.22 -2.89,-19.7 H 716.438 c 5.109,-19.84 13.925,-36.48 26.402,-49.93 12.492,-13.45 28.176,-23.53 47.058,-30.26 18.879,-6.71 40.176,-10.08 63.872,-10.08 H 990.141 V 5796.93 H 851.852" id="path34"/>
      <path transform="matrix(0.13333333,0,0,-0.13333333,0,1252.7333)" style="fill:#2e3591;fill-opacity:1;fill-rule:nonzero;stroke:none" d="m 1139.96,5796.93 v 350.54 c 0,43.52 12.33,77.63 36.98,102.28 24.65,24.64 58.73,36.97 102.28,36.97 h 135.42 v -112.36 h -112.37 c -8.33,0 -15.53,-2.88 -21.61,-8.65 -6.09,-5.76 -9.12,-13.12 -9.12,-22.09 v -346.69 h -131.58" id="path35"/>
      <path transform="matrix(0.13333333,0,0,-0.13333333,0,1252.7333)" style="fill:#2e3591;fill-opacity:1;fill-rule:nonzero;stroke:none" d="m 1721.94,5897.78 c 26.9,0 50.09,6.38 69.63,19.2 19.52,12.8 34.57,30.08 45.15,51.86 10.55,21.75 15.85,46.09 15.85,72.99 0,26.89 -5.3,51.21 -15.85,72.98 -10.58,21.76 -25.63,39.06 -45.15,51.86 -19.54,12.81 -42.73,19.21 -69.63,19.21 -26.89,0 -50.1,-6.4 -69.62,-19.21 -19.54,-12.8 -34.58,-30.1 -45.14,-51.86 -10.56,-21.77 -15.85,-46.09 -15.85,-72.98 0,-26.9 5.29,-51.24 15.85,-72.99 10.56,-21.78 25.6,-39.06 45.14,-51.86 19.52,-12.82 42.73,-19.2 69.62,-19.2 z m 0,-112.37 c -50.58,0 -95.72,11.37 -135.41,34.09 -39.71,22.72 -71.07,53.44 -94.11,92.19 -23.05,38.73 -34.58,82.12 -34.58,130.14 0,48.02 11.53,91.38 34.58,130.13 23.04,38.73 54.4,69.46 94.11,92.2 39.69,22.71 84.83,34.09 135.41,34.09 50.58,0 95.71,-11.38 135.42,-34.09 39.69,-22.74 71.07,-53.47 94.12,-92.2 23.05,-38.75 34.56,-82.11 34.56,-130.13 0,-48.02 -11.51,-91.41 -34.56,-130.14 -23.05,-38.75 -54.43,-69.47 -94.12,-92.19 -39.71,-22.72 -84.84,-34.09 -135.42,-34.09" id="path36"/>
      <path clip-path="url(#clipPath38)" transform="matrix(0.13333333,0,0,-0.13333333,0,1252.7333)" style="fill:url(#linearGradient38);fill-opacity:1;fill-rule:nonzero;stroke:none" d="m 2085.91,5796.93 v 121 h 288.12 c 14.08,0 26.9,3.51 38.42,10.57 11.53,7.04 20.8,16.47 27.85,28.33 7.05,11.83 10.57,24.81 10.57,38.9 0,14.72 -3.52,27.99 -10.57,39.85 -7.05,11.84 -16.32,21.28 -27.85,28.33 -11.52,7.04 -24.34,10.57 -38.42,10.57 h -112.36 c -37.79,0 -72.03,7.69 -102.77,23.05 -30.71,15.37 -55.2,37.6 -73.46,66.74 -18.25,29.14 -27.37,64.19 -27.37,105.16 0,40.34 8.64,75.4 25.93,105.16 17.28,29.78 40.65,52.98 70.11,69.63 29.43,16.65 62.1,24.97 97.95,24.97 h 291.97 v -121 h -278.51 c -12.82,0 -24.66,-3.36 -35.55,-10.09 -10.89,-6.72 -19.36,-15.53 -25.44,-26.4 -6.1,-10.9 -9.12,-23.05 -9.12,-36.5 0,-13.45 3.02,-25.61 9.12,-36.5 6.08,-10.89 14.55,-19.53 25.44,-25.93 10.89,-6.41 22.73,-9.6 35.55,-9.6 h 116.19 c 41.62,0 77.8,-8.01 108.53,-24.01 30.74,-16.01 54.58,-38.42 71.55,-67.23 16.96,-28.81 25.45,-62.41 25.45,-100.83 0,-45.48 -8.81,-84.21 -26.41,-116.21 -17.62,-32.03 -41.29,-56.35 -71.07,-72.99 -29.78,-16.66 -62.59,-24.97 -98.43,-24.97 h -305.42" id="path37"/>
      <path clip-path="url(#clipPath40)" transform="matrix(0.13333333,0,0,-0.13333333,0,1252.7333)" style="fill:url(#linearGradient40);fill-opacity:1;fill-rule:nonzero;stroke:none" d="m 2922.41,5785.41 c -49.93,0 -92.85,9.93 -128.69,29.76 -35.87,19.85 -63.23,46.42 -82.12,79.72 -18.89,33.28 -28.32,70.1 -28.32,110.44 v 281.39 h 131.56 v -281.39 c 0,-19.84 4.81,-37.94 14.41,-54.26 9.6,-16.33 22.57,-29.29 38.9,-38.91 16.32,-9.59 34.4,-14.38 54.26,-14.38 19.83,0 37.94,4.79 54.26,14.38 16.33,9.62 29.29,22.58 38.89,38.91 9.61,16.32 14.41,34.42 14.41,54.26 v 281.39 h 131.59 v -281.39 c 0,-40.34 -9.49,-77.16 -28.36,-110.44 -18.87,-33.3 -46.09,-59.87 -81.62,-79.72 -35.53,-19.83 -78.6,-29.76 -129.17,-29.76" id="path39"/>
      <path clip-path="url(#clipPath42)" transform="matrix(0.13333333,0,0,-0.13333333,0,1252.7333)" style="fill:url(#linearGradient42);fill-opacity:1;fill-rule:nonzero;stroke:none" d="m 3286.39,5796.93 v 290.99 c 0,38.42 9.26,73.63 27.86,105.65 18.54,32.01 45.27,57.46 80.19,76.34 34.87,18.89 76.96,28.34 126.29,28.34 23.67,0 45.6,-2.74 65.78,-8.16 20.17,-5.45 38.89,-13.3 56.17,-23.54 17.29,-10.24 32.33,-22.42 45.14,-36.49 h 0.96 c 13.46,14.07 28.82,26.25 46.1,36.49 17.29,10.24 36.16,18.09 56.68,23.54 20.46,5.42 42.57,8.16 66.26,8.16 49.28,0 91.37,-9.45 126.3,-28.34 34.87,-18.88 61.59,-44.33 80.18,-76.34 18.55,-32.02 27.84,-67.23 27.84,-105.65 v -290.99 h -131.57 v 290.99 c 0,17.93 -4.64,34.25 -13.93,48.99 -9.28,14.71 -21.6,26.56 -36.96,35.53 -15.37,8.96 -32.65,13.44 -51.86,13.44 -18.6,0 -35.7,-4.48 -51.4,-13.44 -15.7,-8.97 -28.16,-20.82 -37.44,-35.53 -9.29,-14.74 -13.93,-31.06 -13.93,-48.99 v -290.99 h -131.57 v 290.99 c 0,17.93 -4.64,34.25 -13.93,48.99 -9.28,14.71 -21.6,26.56 -36.97,35.53 -15.36,8.96 -32.65,13.44 -51.85,13.44 -18.59,0 -35.7,-4.48 -51.4,-13.44 -15.69,-8.97 -28.16,-20.82 -37.44,-35.53 -9.29,-14.74 -13.93,-31.06 -13.93,-48.99 v -290.99 h -131.57" id="path41"/>
      <path transform="matrix(0.13333333,0,0,-0.13333333,0,1252.7333)" style="fill:#2e3591;fill-opacity:1;fill-rule:nonzero;stroke:none" d="m 4393.7,5796.93 c -37.15,0 -70.93,8.96 -101.31,26.89 -30.43,17.91 -54.61,42.1 -72.52,72.5 -17.95,30.4 -26.9,64.18 -26.9,101.33 0,26.89 5.78,52.18 17.29,75.87 11.53,23.68 27.22,44.49 47.06,62.42 -19.84,17.93 -35.53,38.73 -47.06,62.43 -11.51,23.67 -17.29,48.64 -17.29,74.91 0,36.49 8.81,69.46 26.42,98.92 17.61,29.44 41.3,52.97 71.08,70.59 29.75,17.59 62.55,26.4 98.43,26.4 h 276.59 v -121 h -261.22 c -13.45,0 -25.79,-3.36 -36.99,-10.09 -11.21,-6.72 -20.16,-15.69 -26.88,-26.9 -6.73,-11.2 -10.09,-23.85 -10.09,-37.92 0,-13.45 3.36,-25.79 10.09,-36.98 6.72,-11.2 15.67,-20.16 26.88,-26.88 11.2,-6.73 23.54,-10.1 36.99,-10.1 h 228.56 v -121 h -222.8 c -14.74,0 -28.19,-3.69 -40.36,-11.04 -12.16,-7.37 -21.75,-17.14 -28.79,-29.3 -7.06,-12.16 -10.57,-25.61 -10.57,-40.33 0,-14.74 3.51,-28.19 10.57,-40.34 7.04,-12.16 16.63,-21.77 28.79,-28.81 12.17,-7.06 25.62,-10.57 40.36,-10.57 h 255.46 v -121 H 4393.7" id="path43"/>
      <path transform="matrix(0.13333333,0,0,-0.13333333,0,1252.7333)" style="fill:#2e3591;fill-opacity:1;fill-rule:nonzero;stroke:none" d="m 4980.47,5785.41 c -28.79,0 -54.9,7.68 -78.27,23.04 -23.37,15.37 -39.54,35.54 -48.5,60.51 l -140.19,417.76 h 143.09 l 113.33,-363.98 c 1.25,-2.57 2.87,-4.49 4.79,-5.76 1.92,-1.29 4.16,-1.92 6.71,-1.92 2.55,0 4.97,0.63 7.22,1.92 2.22,1.27 3.68,3.19 4.31,5.76 l 114.28,363.98 h 140.22 l -140.22,-416.81 c -8.95,-24.96 -25.13,-45.3 -48.49,-60.97 -23.37,-15.68 -49.46,-23.53 -78.28,-23.53" id="path44"/>
      <path transform="matrix(0.13333333,0,0,-0.13333333,0,1252.7333)" style="fill:#2e3591;fill-opacity:1;fill-rule:nonzero;stroke:none" d="m 5530.76,5897.78 c 25.61,0 47.69,6.38 66.28,19.2 18.55,12.8 32.78,30.25 42.73,52.34 9.91,22.08 14.88,46.57 14.88,73.47 0,26.89 -4.97,51.04 -14.88,72.5 -9.95,21.46 -24.18,38.58 -42.73,51.38 -18.59,12.81 -40.67,19.21 -66.28,19.21 -26.25,0 -48.83,-6.4 -67.7,-19.21 -18.9,-12.8 -33.31,-29.92 -43.23,-51.38 -9.91,-21.46 -14.89,-45.61 -14.89,-72.5 0,-26.9 4.98,-51.39 14.89,-73.47 9.92,-22.09 24.33,-39.54 43.23,-52.34 18.87,-12.82 41.45,-19.2 67.7,-19.2 z m -37.45,-112.37 c -44.82,0 -83.87,11.52 -117.15,34.57 -33.31,23.05 -59.08,53.93 -77.32,92.68 -18.24,38.72 -27.38,81.47 -27.38,128.21 0,48.02 10.39,91.55 31.21,130.61 20.8,39.05 50.75,69.94 89.81,92.68 39.04,22.71 85.79,34.09 140.2,34.09 55.05,0 101.49,-11.53 139.26,-34.58 37.77,-23.04 66.59,-54.1 86.45,-93.15 19.83,-39.06 29.75,-82.29 29.75,-129.65 v -243.94 h -131.57 v 81.63 h -1.92 c -9.59,-17.29 -21.6,-32.98 -36.01,-47.06 -14.41,-14.08 -31.87,-25.3 -52.33,-33.61 -20.51,-8.32 -44.84,-12.48 -73,-12.48" id="path45"/>
      <path transform="matrix(0.13333333,0,0,-0.13333333,0,1252.7333)" style="fill:#2e3591;fill-opacity:1;fill-rule:nonzero;stroke:none" d="m 5912.99,5796.93 v 701.08 h 131.57 v -701.08 h -131.57" id="path46"/>
      <path clip-path="url(#clipPath48)" transform="matrix(0.13333333,0,0,-0.13333333,0,1252.7333)" style="fill:url(#linearGradient48);fill-opacity:1;fill-rule:nonzero;stroke:none" d="m 3688.68,8364.42 h -35 v 890.69 l -24.1,7.9 c -196.5,64.7 -400.9,97.5 -607.5,97.5 -6.7,0 -13.4,0 -20.2,-0.1 -199.7,-2.1 -397.3,-34.8 -587.3,-97.4 l -24,-7.9 v -890.69 h -35 v 915.99 l 48.1,15.8 c 193.4,63.7 394.6,97.1 597.9,99.2 6.9,0.1 13.7,0.1 20.5,0.1 210.3,0 418.4,-33.4 618.5,-99.3 l 48.1,-15.8 v -915.99" id="path47"/>
      <path transform="matrix(0.13333333,0,0,-0.13333333,0,1252.7333)" style="fill:#2e3591;fill-opacity:1;fill-rule:nonzero;stroke:none" d="m 3022.21,7315.43 c -0.55,0 -1.1,0 -1.65,0 h 3.26 c -0.54,0 -1.07,0 -1.61,0" id="path49"/>
      <path clip-path="url(#clipPath51)" transform="matrix(0.13333333,0,0,-0.13333333,0,1252.7333)" style="fill:#2e3591;fill-opacity:1;fill-rule:nonzero;stroke:none" d="m 3023.82,7315.43 h -3.26 c -122.45,0.33 -237.3,37.96 -331.93,101.97 -95.24,64.3 -170.6,155.21 -216.06,262.37 -30.24,71.38 -47.01,150.2 -47.01,232.3 v 1317.7 c 134.8,44.37 333.31,93.11 576.72,95.64 6.65,0.07 13.23,0.1 19.82,0.1 253.92,0 460.06,-50.8 596.58,-95.74 v -1317.7 c 0.17,-123.06 -37.68,-238.7 -101.98,-333.58 -64.29,-95.24 -155.04,-170.6 -262.19,-216.05 -71.09,-30.05 -149.34,-46.79 -230.69,-47.01 m 73.57,824.09 -322.35,-267.55 -62.74,-52.2 c 9.33,-31.8 23.51,-61.53 41.65,-88.49 2.25,-3.29 4.33,-6.4 6.74,-9.51 1.73,-2.59 3.63,-5.01 5.53,-7.43 2.25,-2.94 4.5,-5.71 6.74,-8.64 3.29,-3.63 6.4,-7.44 9.69,-10.89 10.37,-11.58 21.6,-22.3 33.53,-32.15 l 0.69,-0.52 c 5.87,-4.83 11.92,-9.33 17.97,-13.82 l 0.7,-0.35 c 17.45,-12.44 36.29,-22.99 56.17,-31.8 1.9,-0.87 3.8,-1.9 5.87,-2.77 8.82,-3.63 17.98,-6.91 27.31,-9.85 l 1.38,-0.52 c 8.3,-2.59 16.95,-4.84 25.59,-6.74 22.46,-5.01 45.97,-7.61 70.34,-7.78 h 6.4 c 2.07,0 4.15,0.17 6.22,0.17 8.13,0.35 16.07,1.04 24.03,1.91 0.86,0.17 1.89,0.17 2.93,0.35 27.66,3.45 54.1,10.19 79.16,20.04 3.63,1.56 7.26,2.94 10.72,4.5 7.09,3.28 14.17,6.56 21.08,10.19 3.46,1.91 6.92,3.81 10.38,5.71 3.45,2.07 6.73,3.97 10.02,6.04 3.45,2.08 6.57,4.33 9.86,6.4 4.66,3.11 9.5,6.57 13.99,10.03 4.49,3.46 8.99,7.08 13.49,10.71 l 0.86,0.87 c 8.82,7.43 17.11,15.21 25.07,23.5 6.38,6.74 12.6,13.83 18.31,21.09 0.87,1.21 1.73,2.24 2.6,3.45 5,6.23 9.67,12.8 14.16,19.53 0.87,1.22 1.73,2.6 2.6,3.81 4.32,6.74 8.47,13.66 12.27,20.74 0.69,1.38 1.38,2.59 2.08,3.8 3.8,7.26 7.43,14.69 10.71,22.3 0.52,1.21 1.21,2.59 1.73,3.8 1.39,3.46 2.76,7.09 4.15,10.72 1.21,3.46 2.59,6.91 3.62,10.37 1.21,3.63 2.43,7.26 3.46,10.89 1.22,3.62 2.08,7.26 3.11,11.06 0.87,3.45 1.91,6.91 2.59,10.54 1.57,7.09 3.12,14.35 4.16,21.6 2.42,16.08 3.63,32.5 3.63,49.44 v 695.34 l 0.17,0.17 103.7,86.06 c 8.82,-2.93 17.98,-4.83 27.65,-4.83 48.92,0 88.5,39.58 88.5,88.49 0,48.91 -39.58,88.5 -88.5,88.5 -48.91,0 -88.49,-39.59 -88.49,-88.5 0,-3.98 0.7,-7.78 1.21,-11.75 l -44.07,-36.46 -0.17,-0.18 v 0.18 l -73.28,-60.85 -195.48,-162.29 0.16,-0.18 c 0.35,-3.8 1.04,-7.61 1.04,-11.57 0,-48.92 -39.58,-88.5 -88.49,-88.5 -9.68,0 -18.85,1.9 -27.48,4.66 -35.44,11.76 -61.02,44.6 -61.02,83.84 0,48.91 39.58,88.48 88.5,88.48 9.67,0 19,-1.89 27.65,-4.84 l 255.12,211.73 70.34,58.43 c -5.01,38.19 -16.42,73.8 -33.36,106.46 -2.94,5.53 -5.87,10.9 -8.99,16.08 -3.1,5.35 -6.39,10.54 -9.85,15.55 -2.25,3.12 -4.32,6.4 -6.74,9.51 -2.25,3.11 -4.49,6.22 -6.91,9.16 -4.85,6.22 -9.86,12.1 -15.04,17.8 l -0.34,0.35 c -20.58,22.81 -44.43,42.52 -70.7,58.59 l -1.9,1.04 c -11.93,7.43 -24.54,13.83 -37.68,19.53 -1.03,0.52 -2.08,0.86 -3.11,1.38 -4.84,2.08 -9.68,3.98 -14.69,5.71 -4.84,1.9 -9.85,3.45 -14.86,5.01 -30.25,9.51 -62.57,14.51 -96.28,14.69 -16.76,0 -33.18,-1.38 -49.08,-3.81 h -0.7 c -5.18,-0.86 -10.36,-1.72 -15.55,-2.93 -4.49,-0.69 -8.82,-1.73 -12.96,-2.94 -4.85,-1.04 -9.51,-2.42 -14.01,-3.8 -4.66,-1.21 -9.15,-2.77 -13.65,-4.32 -5.53,-1.9 -11.06,-3.98 -16.42,-6.23 -4.15,-1.73 -8.47,-3.63 -12.61,-5.53 -5.36,-2.42 -10.89,-5.19 -16.25,-8.12 -10.2,-5.36 -20.06,-11.23 -29.56,-17.63 -6.39,-4.32 -12.79,-8.99 -18.84,-13.83 -42.86,-33.53 -77.09,-77.95 -98.52,-128.59 -16.24,-38.54 -25.23,-80.71 -25.4,-125.83 v -753.75 l -0.17,-0.17 -33.36,-27.66 c -8.64,2.94 -17.98,4.84 -27.66,4.84 -48.91,0 -88.5,-39.58 -88.5,-88.49 0,-48.91 39.59,-88.5 88.5,-88.5 24.54,0 46.67,10.03 62.74,26.1 15.9,15.91 25.75,37.86 25.75,62.4 0,3.97 -0.69,7.78 -1.03,11.58 l 47.01,39.06 265.82,220.72 v 0.17 c -0.51,3.81 -1.2,7.61 -1.2,11.58 0,48.91 39.58,88.49 88.49,88.49 9.68,0 18.85,-1.9 27.48,-4.66 35.44,-11.75 61.01,-44.59 61.01,-83.83 0,-48.91 -39.58,-88.49 -88.49,-88.49 -9.68,0 -18.84,1.89 -27.65,4.83" id="path50"/>
      <path clip-path="url(#clipPath53)" transform="matrix(0.13333333,0,0,-0.13333333,0,1252.7333)" style="fill:#ffffff;fill-opacity:1;fill-rule:nonzero;stroke:none" d="m 3028.6,7588.51 h -6.4 c -24.37,0.17 -47.88,2.77 -70.34,7.78 -8.64,1.9 -17.29,4.15 -25.59,6.74 l -1.38,0.52 c -9.33,2.94 -18.49,6.22 -27.31,9.85 -2.07,0.87 -3.97,1.9 -5.87,2.77 -19.88,8.81 -38.72,19.36 -56.17,31.8 l -0.7,0.35 c -6.05,4.49 -12.1,8.99 -17.97,13.82 l -0.69,0.52 c -11.93,9.85 -23.16,20.57 -33.53,32.15 -3.29,3.45 -6.4,7.26 -9.69,10.89 -2.24,2.93 -4.49,5.7 -6.74,8.64 -1.9,2.42 -3.8,4.84 -5.53,7.43 -2.41,3.11 -4.49,6.22 -6.74,9.51 -18.14,26.96 -32.32,56.69 -41.65,88.49 l 62.74,52.2 322.35,267.55 c 8.81,-2.94 17.97,-4.83 27.65,-4.83 48.91,0 88.49,39.58 88.49,88.49 0,39.24 -25.57,72.08 -61.01,83.83 -8.63,2.76 -17.8,4.66 -27.48,4.66 -48.91,0 -88.49,-39.58 -88.49,-88.49 0,-3.97 0.69,-7.77 1.2,-11.58 v -0.17 l -265.82,-220.72 -47.01,-39.06 c 0.34,-3.8 1.03,-7.61 1.03,-11.58 0,-24.54 -9.85,-46.49 -25.75,-62.4 -16.07,-16.07 -38.2,-26.1 -62.74,-26.1 -48.91,0 -88.5,39.59 -88.5,88.5 0,48.91 39.59,88.49 88.5,88.49 9.68,0 19.02,-1.9 27.66,-4.84 l 33.36,27.66 0.17,0.17 v 753.75 c 0.17,45.12 9.16,87.29 25.4,125.83 21.43,50.64 55.66,95.06 98.52,128.59 6.05,4.84 12.45,9.51 18.84,13.83 9.5,6.4 19.36,12.27 29.56,17.63 5.36,2.93 10.89,5.7 16.25,8.12 4.14,1.9 8.46,3.8 12.61,5.53 5.36,2.25 10.89,4.33 16.42,6.23 4.5,1.55 8.99,3.11 13.65,4.32 4.5,1.38 9.16,2.76 14.01,3.8 4.14,1.21 8.47,2.25 12.96,2.94 5.19,1.21 10.37,2.07 15.55,2.93 h 0.7 c 15.9,2.43 32.32,3.81 49.08,3.81 33.71,-0.18 66.03,-5.18 96.28,-14.69 5.01,-1.56 10.02,-3.11 14.86,-5.01 5.01,-1.73 9.85,-3.63 14.69,-5.71 1.03,-0.52 2.08,-0.86 3.11,-1.38 13.14,-5.7 25.75,-12.1 37.68,-19.53 l 1.9,-1.04 c 26.27,-16.07 50.12,-35.78 70.7,-58.59 l 0.34,-0.35 c 5.18,-5.7 10.19,-11.58 15.04,-17.8 2.42,-2.94 4.66,-6.05 6.91,-9.16 2.42,-3.11 4.49,-6.39 6.74,-9.51 3.46,-5.01 6.75,-10.2 9.85,-15.55 3.12,-5.18 6.05,-10.55 8.99,-16.08 16.94,-32.66 28.35,-68.27 33.36,-106.46 l -70.34,-58.43 -255.12,-211.73 c -8.65,2.95 -17.98,4.84 -27.65,4.84 -48.92,0 -88.5,-39.57 -88.5,-88.48 0,-39.24 25.58,-72.08 61.02,-83.84 8.63,-2.76 17.8,-4.66 27.48,-4.66 48.91,0 88.49,39.58 88.49,88.5 0,3.96 -0.69,7.77 -1.04,11.57 l -0.16,0.18 195.48,162.29 73.28,60.85 v -0.18 l 0.17,0.18 44.07,36.46 c -0.51,3.97 -1.21,7.77 -1.21,11.75 0,48.91 39.58,88.5 88.49,88.5 48.92,0 88.5,-39.59 88.5,-88.5 0,-48.91 -39.58,-88.49 -88.5,-88.49 -9.67,0 -18.83,1.9 -27.65,4.83 l -103.7,-86.06 -0.17,-0.17 v -695.34 c 0,-16.94 -1.21,-33.36 -3.63,-49.44 -1.04,-7.25 -2.59,-14.51 -4.16,-21.6 -0.68,-3.63 -1.72,-7.09 -2.59,-10.54 -1.03,-3.8 -1.89,-7.44 -3.11,-11.06 -1.03,-3.63 -2.25,-7.26 -3.46,-10.89 -1.03,-3.46 -2.41,-6.91 -3.62,-10.37 -1.39,-3.63 -2.76,-7.26 -4.15,-10.72 -0.52,-1.21 -1.21,-2.59 -1.73,-3.8 -3.28,-7.61 -6.91,-15.04 -10.71,-22.3 -0.7,-1.21 -1.39,-2.42 -2.08,-3.8 -3.8,-7.08 -7.95,-14 -12.27,-20.74 -0.87,-1.21 -1.73,-2.59 -2.6,-3.81 -4.49,-6.73 -9.16,-13.3 -14.16,-19.53 -0.87,-1.21 -1.73,-2.24 -2.6,-3.45 -5.71,-7.26 -11.93,-14.35 -18.31,-21.09 -7.96,-8.29 -16.25,-16.07 -25.07,-23.5 l -0.86,-0.87 c -4.5,-3.63 -9,-7.25 -13.49,-10.71 -4.49,-3.46 -9.33,-6.92 -13.99,-10.03 -3.29,-2.07 -6.41,-4.32 -9.86,-6.4 -3.29,-2.07 -6.57,-3.97 -10.02,-6.04 -3.46,-1.9 -6.92,-3.8 -10.38,-5.71 -6.91,-3.63 -13.99,-6.91 -21.08,-10.19 -3.46,-1.56 -7.09,-2.94 -10.72,-4.5 -25.06,-9.85 -51.5,-16.59 -79.16,-20.04 -1.04,-0.18 -2.07,-0.18 -2.93,-0.35 -7.96,-0.87 -15.9,-1.56 -24.03,-1.91 -2.07,0 -4.15,-0.17 -6.22,-0.17" id="path52"/>
      <path clip-path="url(#clipPath55)" transform="matrix(0.13333333,0,0,-0.13333333,0,1252.7333)" style="fill:url(#linearGradient55);fill-opacity:1;fill-rule:nonzero;stroke:none" d="m 3345.58,8607.41 -73.3,-60.9 v -635.5 c 0,-137.4 -112.3,-249.4 -250.1,-249.4 -124.6,0 -228.3,91.4 -247.1,210.4 l -63.2,-52.5 c 9.4,-31.7 23.8,-61.4 42.1,-88.2 2.2,-3.3 4.3,-6.4 6.7,-9.5 1.7,-2.6 3.6,-5.1 5.6,-7.5 2.2,-2.9 4.4,-5.7 6.7,-8.6 3.1,-3.8 6.4,-7.4 9.7,-10.9 10.3,-11.6 21.6,-22.3 33.5,-32.1 l 0.7,-0.6 c 5.9,-4.8 11.9,-9.3 18,-13.8 l 0.7,-0.3 c 17.4,-12.5 36.3,-23 56.1,-31.8 1.9,-0.9 3.8,-1.9 5.9,-2.8 8.8,-3.6 18,-6.9 27.3,-9.9 l 1.4,-0.5 c 8.3,-2.6 16.9,-4.8 25.6,-6.7 22.6,-5.2 46.1,-8 70.3,-8 2.3,0 4.3,0 6.4,0.2 2.1,0 4.2,0.2 6.2,0.2 8.2,0.3 16.1,1 24.1,1.9 0.8,0.2 1.9,0.2 2.9,0.3 27.7,3.1 54.1,10 79.2,20.1 3.6,1.5 7.2,2.9 10.7,4.5 7.1,3.2 14.2,6.5 21.1,10.2 3.4,1.9 6.9,3.8 10.3,5.7 3.5,2 6.8,3.9 10.1,6 3.4,2.1 6.5,4.3 9.8,6.4 4.7,3.1 9.5,6.6 14,10 4.5,3.5 9,7.1 13.5,10.8 l 0.9,0.8 c 8.8,7.4 17.1,15.2 25,23.5 6.4,6.8 12.6,13.8 18.3,21.1 0.9,1.2 1.8,2.3 2.6,3.5 5.1,6.2 9.7,12.8 14.2,19.5 0.9,1.2 1.7,2.6 2.6,3.8 4.3,6.7 8.5,13.7 12.3,20.7 0.7,1.4 1.4,2.6 2.1,3.8 3.8,7.3 7.4,14.7 10.7,22.3 0.5,1.2 1.2,2.6 1.7,3.8 1.4,3.5 2.8,7.1 4.1,10.8 1.3,3.4 2.6,6.9 3.7,10.3 1.2,3.7 2.4,7.3 3.4,10.9 1.2,3.6 2.1,7.3 3.1,11.1 0.9,3.4 1.9,6.9 2.6,10.5 1.6,7.1 3,14.4 4.2,21.6 2.6,15.9 3.8,32 3.8,48.4 v 696.6 z m -2.5,240.5 c -4.9,38 -16.6,73.9 -33.8,106.6 -2.9,5.5 -5.9,10.8 -9,16 -3.1,5.4 -6.4,10.6 -9.8,15.6 -2.3,3.1 -4.3,6.4 -6.8,9.5 -2.2,3.1 -4.5,6.2 -6.9,9.1 -4.8,6.3 -9.8,12.1 -15,17.9 l -0.4,0.3 c -20.5,22.8 -44.4,42.5 -70.7,58.6 l -1.9,1 c -12.1,7.3 -24.7,13.9 -37.6,19.6 -1.1,0.5 -2.1,0.8 -3.1,1.3 -4.9,2.1 -9.7,4 -14.7,5.7 -4.9,1.9 -9.9,3.5 -14.9,5.1 -30.4,9.8 -62.7,15 -96.3,15 -16.7,0 -33,-1.7 -49.1,-4.2 h -0.7 c -5.1,-0.8 -10.3,-1.7 -15.5,-2.9 -4.5,-0.9 -8.8,-1.7 -13,-2.9 -4.8,-1.1 -9.3,-2.5 -14,-3.8 -4.6,-1.4 -9.1,-2.8 -13.6,-4.4 -5.6,-1.9 -11.1,-3.9 -16.4,-6.2 -4.2,-1.7 -8.5,-3.6 -12.7,-5.5 -5.3,-2.4 -10.8,-5.2 -16.2,-8.1 -10.2,-5.2 -20.1,-11.1 -29.6,-17.7 -6.4,-4.3 -12.8,-8.9 -18.8,-13.8 -75.5,-58.8 -124.1,-150.4 -124.1,-253.2 v -755.1 l 0.2,0.1 73.3,60.9 v 694.1 c 0,137.4 112.3,249.4 250.2,249.4 137.8,0 250.1,-112 250.1,-249.4 v -17 l 70.8,58.4" id="path54"/>
      <path transform="matrix(0.13333333,0,0,-0.13333333,0,1252.7333)" style="fill:#2e3591;fill-opacity:1;fill-rule:nonzero;stroke:none" d="m 3152.53,8307.01 c -8.64,2.76 -17.8,4.66 -27.48,4.66 -48.92,0 -88.5,-39.58 -88.5,-88.49 0,-3.98 0.69,-7.78 1.21,-11.58 v -0.18 l -265.83,-220.71 v -79.68 c 0,-13.31 1.04,-26.27 3.12,-39.06 l 322.34,267.55 c 8.82,-2.94 17.98,-4.83 27.66,-4.83 48.91,0 88.49,39.58 88.49,88.49 0,39.23 -25.58,72.07 -61.01,83.83" id="path56"/>
      <path transform="matrix(0.13333333,0,0,-0.13333333,0,1252.7333)" style="fill:#2e3591;fill-opacity:1;fill-rule:nonzero;stroke:none" d="m 3196.57,7077.19 h -348.9 l 59.68,316.54 h 229.54 l 59.68,-316.54" id="path57"/>
      <path clip-path="url(#clipPath59)" transform="matrix(0.13333333,0,0,-0.13333333,0,1252.7333)" style="fill:url(#linearGradient59);fill-opacity:1;fill-rule:nonzero;stroke:none" d="m 3159.51,7007.11 h -286.88 c -71.85,0 -130.09,-58.24 -130.09,-130.08 h 547.06 c 0,71.84 -58.25,130.08 -130.09,130.08" id="path58"/>
      <path transform="matrix(0.13333333,0,0,-0.13333333,0,1252.7333)" style="fill:#2e3591;fill-opacity:1;fill-rule:nonzero;stroke:none" d="m 3370.28,6803.82 h -708.42 c -95.54,0 -172.99,-77.45 -172.99,-173 h 1054.4 c 0,95.55 -77.45,173 -172.99,173" id="path60"/>
      <path transform="matrix(0.13333333,0,0,-0.13333333,0,1252.7333)" style="fill:#2e3591;fill-opacity:1;fill-rule:nonzero;stroke:none" d="m 4028.08,9243.06 v -0.1 l -1.1,0.1 z" id="path61"/>
      <path transform="matrix(0.13333333,0,0,-0.13333333,0,1252.7333)" style="fill:#2e3591;fill-opacity:1;fill-rule:nonzero;stroke:none" d="m 3609.78,7898.89 c -0.89,-19.16 -1.72,-35.32 -1.72,-35.32 0,0 170.11,217.48 177.09,227.9 23.36,33.51 49.64,65.45 78.13,96.35 29.04,30.64 59.26,60.82 90.85,90.8 31.59,30.14 63.83,60.33 95.95,91.9 31.98,31.89 63.53,65.16 93.26,101.23 7.49,8.96 14.44,18.5 21.7,27.79 7.26,9.2 14.29,18.74 21.01,28.6 13.6,19.66 26.43,40.3 37.95,62.28 23.11,43.72 41,93.98 44.53,149.04 0.34,6.9 0.52,13.8 0.54,20.71 -0.3,7 -0.44,13.91 -1.05,20.93 l -2.58,21.06 c -1.26,6.96 -2.93,13.85 -4.44,20.74 -6.91,27.5 -18.21,53.72 -32.9,77.49 -29.37,47.63 -72.44,85.58 -122.66,108.69 -25.03,11.63 -51.8,19.88 -79.28,24.05 -4.63,0.66 -14.57,1.35 -28.12,2.03 l -0.88,0.11 c -52.92,0.56 -96.83,-6.77 -133.05,-19.14 -27.18,-9.25 -49.99,-21.57 -68.42,-35.25 -3.72,-2.75 -7.2,-5.51 -10.52,-8.36 -21.74,-18.14 -36.14,-37.84 -45.11,-54.05 -3.97,-7.16 -10.4,-24.11 -10.24,-26.45 -1.16,-5.1 -1.92,-10.29 -2.12,-15.66 -1.23,-32.34 15.92,-61.19 42.18,-76.4 53.42,67.79 130.27,96.54 179.34,108.58 31.3,7.65 64.12,6.57 94.66,-3.66 4.05,-1.36 7.69,-2.79 10.45,-4.09 14.76,-7.07 28.48,-16.19 40.93,-26.86 12.29,-10.67 22.82,-23.29 31.3,-36.78 8.49,-13.58 14.84,-28.2 18.85,-43.38 l 2.54,-11.42 1.49,-11.63 c 0.41,-3.95 0.42,-8.05 0.66,-12.08 l -0.22,-12.28 c -1.73,-33.04 -13.33,-67.7 -30.53,-101.92 -8.6,-17.11 -18.65,-34.08 -29.81,-50.86 -5.46,-8.39 -11.39,-16.68 -17.57,-24.8 -6.25,-8.2 -12.03,-16.49 -18.52,-24.53 -25.65,-32.29 -54.3,-63.34 -83.84,-94.36 -59.39,-61.95 -124.6,-122.71 -184.74,-191.94 -18.12,-21.26 -72.4,-87.04 -115.68,-159.19 -36.28,-60.48 -56.13,-129.42 -59.41,-199.87" id="path62"/>
      <path transform="matrix(0.13333333,0,0,-0.13333333,0,1252.7333)" style="fill:#2e3591;fill-opacity:1;fill-rule:nonzero;stroke:none" d="m 2434.58,7898.89 c 0.89,-19.16 1.72,-35.32 1.72,-35.32 0,0 -170.11,217.48 -177.09,227.9 -23.37,33.51 -49.64,65.45 -78.13,96.35 -29.04,30.64 -59.27,60.82 -90.85,90.8 -31.59,30.14 -63.83,60.33 -95.96,91.9 -31.98,31.89 -63.52,65.16 -93.25,101.23 -7.49,8.96 -14.44,18.5 -21.7,27.79 -7.26,9.2 -14.29,18.74 -21.01,28.6 -13.6,19.66 -26.43,40.3 -37.95,62.28 -23.11,43.72 -41,93.98 -44.53,149.04 -0.34,6.9 -0.52,13.8 -0.54,20.71 0.3,7 0.43,13.91 1.05,20.93 l 2.58,21.06 c 1.26,6.96 2.93,13.85 4.44,20.74 6.91,27.5 18.21,53.72 32.9,77.49 29.37,47.63 72.44,85.58 122.66,108.69 25.03,11.63 51.79,19.88 79.27,24.05 4.64,0.66 14.58,1.35 28.13,2.03 l 0.88,0.11 c 52.92,0.56 96.83,-6.77 133.05,-19.14 27.18,-9.25 49.98,-21.57 68.42,-35.25 3.72,-2.75 7.2,-5.51 10.52,-8.36 21.74,-18.14 36.14,-37.84 45.11,-54.05 3.97,-7.16 10.39,-24.11 10.24,-26.45 1.16,-5.1 1.92,-10.29 2.12,-15.66 1.23,-32.34 -15.92,-61.19 -42.18,-76.4 -53.42,67.79 -130.28,96.54 -179.34,108.58 -31.3,7.65 -64.12,6.57 -94.66,-3.66 -4.05,-1.36 -7.69,-2.79 -10.46,-4.09 -14.75,-7.07 -28.47,-16.19 -40.92,-26.86 -12.29,-10.67 -22.82,-23.29 -31.31,-36.78 -8.48,-13.58 -14.83,-28.2 -18.84,-43.38 l -2.54,-11.42 -1.49,-11.63 c -0.41,-3.95 -0.42,-8.05 -0.67,-12.08 l 0.23,-12.28 c 1.73,-33.04 13.33,-67.7 30.53,-101.92 8.6,-17.11 18.65,-34.08 29.8,-50.86 5.46,-8.39 11.4,-16.68 17.58,-24.8 6.25,-8.2 12.03,-16.49 18.52,-24.53 25.65,-32.29 54.3,-63.34 83.84,-94.36 59.38,-61.95 124.59,-122.71 184.74,-191.94 18.12,-21.26 72.4,-87.04 115.68,-159.19 36.28,-60.48 56.13,-129.42 59.41,-199.87" id="path63"/>
    </g>
  </g>
</svg>